<svg width="154" height="23" viewBox="0 0 154 23" fill="none" xmlns="http://www.w3.org/2000/svg">
<path d="M36 0.5H11C4.92487 0.5 0 5.42487 0 11.5C0 17.5751 4.92487 22.5 11 22.5H36C42.0751 22.5 47 17.5751 47 11.5C47 5.42487 42.0751 0.5 36 0.5Z" fill="#FF6969"/>
<path d="M14.066 14.539L17.156 16.5L16.339 12.8L19.066 10.313L15.466 9.988L14.066 6.5L12.666 9.988L9.06598 10.313L11.794 12.8L10.976 16.5L14.066 14.539Z" fill="white"/>
<path d="M21.414 15.676V14.644L25.446 8.86H27.102V14.488H28.218V15.676H27.102V17.5H25.758V15.676H21.414ZM25.818 10.252L22.986 14.488H25.818V10.252ZM30.0835 17.584C29.8355 17.584 29.6275 17.5 29.4595 17.332C29.2915 17.164 29.2075 16.956 29.2075 16.708C29.2075 16.46 29.2915 16.252 29.4595 16.084C29.6275 15.916 29.8355 15.832 30.0835 15.832C30.3235 15.832 30.5275 15.916 30.6955 16.084C30.8635 16.252 30.9475 16.46 30.9475 16.708C30.9475 16.956 30.8635 17.164 30.6955 17.332C30.5275 17.5 30.3235 17.584 30.0835 17.584ZM33.9501 15.124C34.0301 15.524 34.2021 15.828 34.4661 16.036C34.7301 16.244 35.0861 16.348 35.5341 16.348C36.1021 16.348 36.5181 16.124 36.7821 15.676C37.0461 15.228 37.1781 14.464 37.1781 13.384C36.9861 13.656 36.7141 13.868 36.3621 14.02C36.0181 14.164 35.6421 14.236 35.2341 14.236C34.7141 14.236 34.2421 14.132 33.8181 13.924C33.3941 13.708 33.0581 13.392 32.8101 12.976C32.5701 12.552 32.4501 12.04 32.4501 11.44C32.4501 10.56 32.7061 9.86 33.2181 9.34C33.7381 8.812 34.4501 8.548 35.3541 8.548C36.4421 8.548 37.2141 8.912 37.6701 9.64C38.1341 10.36 38.3661 11.468 38.3661 12.964C38.3661 13.996 38.2781 14.84 38.1021 15.496C37.9341 16.152 37.6381 16.648 37.2141 16.984C36.7901 17.32 36.2021 17.488 35.4501 17.488C34.5941 17.488 33.9341 17.264 33.4701 16.816C33.0061 16.368 32.7461 15.804 32.6901 15.124H33.9501ZM35.4741 13.084C35.9541 13.084 36.3301 12.936 36.6021 12.64C36.8821 12.336 37.0221 11.936 37.0221 11.44C37.0221 10.888 36.8741 10.46 36.5781 10.156C36.2901 9.844 35.8941 9.688 35.3901 9.688C34.8861 9.688 34.4861 9.848 34.1901 10.168C33.9021 10.48 33.7581 10.892 33.7581 11.404C33.7581 11.892 33.8981 12.296 34.1781 12.616C34.4661 12.928 34.8981 13.084 35.4741 13.084Z" fill="white"/>
<path d="M63.532 6.54V5.378H66.164V15.5H64.876V6.54H63.532ZM68.3244 7.926C68.3897 7.06733 68.721 6.39533 69.3184 5.91C69.9157 5.42467 70.6904 5.182 71.6424 5.182C72.277 5.182 72.823 5.29867 73.2804 5.532C73.747 5.756 74.097 6.064 74.3304 6.456C74.573 6.848 74.6944 7.29133 74.6944 7.786C74.6944 8.36467 74.5264 8.864 74.1904 9.284C73.8637 9.704 73.4344 9.97467 72.9024 10.096V10.166C73.509 10.3153 73.9897 10.6093 74.3444 11.048C74.699 11.4867 74.8764 12.0607 74.8764 12.77C74.8764 13.302 74.755 13.7827 74.5124 14.212C74.2697 14.632 73.9057 14.9633 73.4204 15.206C72.935 15.4487 72.3517 15.57 71.6704 15.57C70.681 15.57 69.869 15.3133 69.2344 14.8C68.5997 14.2773 68.245 13.54 68.1704 12.588H69.4024C69.4677 13.148 69.6964 13.6053 70.0884 13.96C70.4804 14.3147 71.003 14.492 71.6564 14.492C72.3097 14.492 72.8044 14.324 73.1404 13.988C73.4857 13.6427 73.6584 13.1993 73.6584 12.658C73.6584 11.958 73.425 11.454 72.9584 11.146C72.4917 10.838 71.787 10.684 70.8444 10.684H70.5224V9.62H70.8584C71.717 9.61067 72.3657 9.47067 72.8044 9.2C73.243 8.92 73.4624 8.49067 73.4624 7.912C73.4624 7.41733 73.299 7.02067 72.9724 6.722C72.655 6.42333 72.1977 6.274 71.6004 6.274C71.0217 6.274 70.555 6.42333 70.2004 6.722C69.8457 7.02067 69.6357 7.422 69.5704 7.926H68.3244ZM82.2385 7.786C82.0332 6.75 81.3938 6.232 80.3205 6.232C79.4898 6.232 78.8692 6.554 78.4585 7.198C78.0478 7.83267 77.8472 8.88267 77.8565 10.348C78.0712 9.86267 78.4258 9.48467 78.9205 9.214C79.4245 8.934 79.9845 8.794 80.6005 8.794C81.5618 8.794 82.3272 9.09267 82.8965 9.69C83.4752 10.2873 83.7645 11.1133 83.7645 12.168C83.7645 12.8027 83.6385 13.372 83.3865 13.876C83.1438 14.38 82.7705 14.7813 82.2665 15.08C81.7718 15.3787 81.1698 15.528 80.4605 15.528C79.4992 15.528 78.7478 15.3133 78.2065 14.884C77.6652 14.4547 77.2872 13.862 77.0725 13.106C76.8578 12.35 76.7505 11.4167 76.7505 10.306C76.7505 6.88067 77.9452 5.168 80.3345 5.168C81.2492 5.168 81.9678 5.41533 82.4905 5.91C83.0132 6.40467 83.3212 7.03 83.4145 7.786H82.2385ZM80.3345 9.872C79.9332 9.872 79.5552 9.956 79.2005 10.124C78.8458 10.2827 78.5565 10.53 78.3325 10.866C78.1178 11.1927 78.0105 11.594 78.0105 12.07C78.0105 12.7793 78.2158 13.358 78.6265 13.806C79.0372 14.2447 79.6252 14.464 80.3905 14.464C81.0438 14.464 81.5618 14.2633 81.9445 13.862C82.3365 13.4513 82.5325 12.9007 82.5325 12.21C82.5325 11.482 82.3458 10.9127 81.9725 10.502C81.5992 10.082 81.0532 9.872 80.3345 9.872ZM91.1252 7.786C90.9199 6.75 90.2806 6.232 89.2072 6.232C88.3766 6.232 87.7559 6.554 87.3452 7.198C86.9346 7.83267 86.7339 8.88267 86.7432 10.348C86.9579 9.86267 87.3126 9.48467 87.8072 9.214C88.3112 8.934 88.8712 8.794 89.4872 8.794C90.4486 8.794 91.2139 9.09267 91.7832 9.69C92.3619 10.2873 92.6512 11.1133 92.6512 12.168C92.6512 12.8027 92.5252 13.372 92.2732 13.876C92.0306 14.38 91.6572 14.7813 91.1532 15.08C90.6586 15.3787 90.0566 15.528 89.3472 15.528C88.3859 15.528 87.6346 15.3133 87.0932 14.884C86.5519 14.4547 86.1739 13.862 85.9592 13.106C85.7446 12.35 85.6372 11.4167 85.6372 10.306C85.6372 6.88067 86.8319 5.168 89.2212 5.168C90.1359 5.168 90.8546 5.41533 91.3772 5.91C91.8999 6.40467 92.2079 7.03 92.3012 7.786H91.1252ZM89.2212 9.872C88.8199 9.872 88.4419 9.956 88.0872 10.124C87.7326 10.2827 87.4432 10.53 87.2192 10.866C87.0046 11.1927 86.8972 11.594 86.8972 12.07C86.8972 12.7793 87.1026 13.358 87.5132 13.806C87.9239 14.2447 88.5119 14.464 89.2772 14.464C89.9306 14.464 90.4486 14.2633 90.8312 13.862C91.2232 13.4513 91.4192 12.9007 91.4192 12.21C91.4192 11.482 91.2326 10.9127 90.8592 10.502C90.4859 10.082 89.9399 9.872 89.2212 9.872ZM103.45 15.5L101.126 11.51H99.5864V15.5H98.3124V5.742H101.462C102.2 5.742 102.82 5.868 103.324 6.12C103.838 6.372 104.22 6.71267 104.472 7.142C104.724 7.57133 104.85 8.06133 104.85 8.612C104.85 9.284 104.654 9.87667 104.262 10.39C103.88 10.9033 103.301 11.244 102.526 11.412L104.976 15.5H103.45ZM99.5864 10.488H101.462C102.153 10.488 102.671 10.32 103.016 9.984C103.362 9.63867 103.534 9.18133 103.534 8.612C103.534 8.03333 103.362 7.58533 103.016 7.268C102.68 6.95067 102.162 6.792 101.462 6.792H99.5864V10.488ZM113.83 11.37C113.83 11.6127 113.816 11.8693 113.788 12.14H107.656C107.703 12.896 107.959 13.4887 108.426 13.918C108.902 14.338 109.476 14.548 110.148 14.548C110.699 14.548 111.156 14.422 111.52 14.17C111.893 13.9087 112.155 13.5633 112.304 13.134H113.676C113.471 13.8713 113.06 14.4733 112.444 14.94C111.828 15.3973 111.063 15.626 110.148 15.626C109.42 15.626 108.767 15.4627 108.188 15.136C107.619 14.8093 107.171 14.3473 106.844 13.75C106.517 13.1433 106.354 12.4433 106.354 11.65C106.354 10.8567 106.513 10.1613 106.83 9.564C107.147 8.96667 107.591 8.50933 108.16 8.192C108.739 7.86533 109.401 7.702 110.148 7.702C110.876 7.702 111.52 7.86067 112.08 8.178C112.64 8.49533 113.069 8.934 113.368 9.494C113.676 10.0447 113.83 10.67 113.83 11.37ZM112.514 11.104C112.514 10.6187 112.407 10.2033 112.192 9.858C111.977 9.50333 111.683 9.23733 111.31 9.06C110.946 8.87333 110.54 8.78 110.092 8.78C109.448 8.78 108.897 8.98533 108.44 9.396C107.992 9.80667 107.735 10.376 107.67 11.104H112.514ZM118.368 14.324L120.748 7.828H122.106L119.096 15.5H117.612L114.602 7.828H115.974L118.368 14.324ZM124.017 6.582C123.775 6.582 123.569 6.498 123.401 6.33C123.233 6.162 123.149 5.95667 123.149 5.714C123.149 5.47133 123.233 5.266 123.401 5.098C123.569 4.93 123.775 4.846 124.017 4.846C124.251 4.846 124.447 4.93 124.605 5.098C124.773 5.266 124.857 5.47133 124.857 5.714C124.857 5.95667 124.773 6.162 124.605 6.33C124.447 6.498 124.251 6.582 124.017 6.582ZM124.633 7.828V15.5H123.359V7.828H124.633ZM133.805 11.37C133.805 11.6127 133.791 11.8693 133.763 12.14H127.631C127.677 12.896 127.934 13.4887 128.401 13.918C128.877 14.338 129.451 14.548 130.123 14.548C130.673 14.548 131.131 14.422 131.495 14.17C131.868 13.9087 132.129 13.5633 132.279 13.134H133.651C133.445 13.8713 133.035 14.4733 132.419 14.94C131.803 15.3973 131.037 15.626 130.123 15.626C129.395 15.626 128.741 15.4627 128.163 15.136C127.593 14.8093 127.145 14.3473 126.819 13.75C126.492 13.1433 126.329 12.4433 126.329 11.65C126.329 10.8567 126.487 10.1613 126.805 9.564C127.122 8.96667 127.565 8.50933 128.135 8.192C128.713 7.86533 129.376 7.702 130.123 7.702C130.851 7.702 131.495 7.86067 132.055 8.178C132.615 8.49533 133.044 8.934 133.343 9.494C133.651 10.0447 133.805 10.67 133.805 11.37ZM132.489 11.104C132.489 10.6187 132.381 10.2033 132.167 9.858C131.952 9.50333 131.658 9.23733 131.285 9.06C130.921 8.87333 130.515 8.78 130.067 8.78C129.423 8.78 128.872 8.98533 128.415 9.396C127.967 9.80667 127.71 10.376 127.645 11.104H132.489ZM145.706 7.828L143.312 15.5H141.996L140.148 9.41L138.3 15.5H136.984L134.576 7.828H135.878L137.642 14.268L139.546 7.828H140.848L142.71 14.282L144.446 7.828H145.706ZM149.687 15.626C149.099 15.626 148.571 15.528 148.105 15.332C147.638 15.1267 147.269 14.8467 146.999 14.492C146.728 14.128 146.579 13.7127 146.551 13.246H147.867C147.904 13.6287 148.081 13.9413 148.399 14.184C148.725 14.4267 149.15 14.548 149.673 14.548C150.158 14.548 150.541 14.4407 150.821 14.226C151.101 14.0113 151.241 13.7407 151.241 13.414C151.241 13.078 151.091 12.8307 150.793 12.672C150.494 12.504 150.032 12.3407 149.407 12.182C148.837 12.0327 148.371 11.8833 148.007 11.734C147.652 11.5753 147.344 11.3467 147.083 11.048C146.831 10.74 146.705 10.3387 146.705 9.844C146.705 9.452 146.821 9.09267 147.055 8.766C147.288 8.43933 147.619 8.18267 148.049 7.996C148.478 7.8 148.968 7.702 149.519 7.702C150.368 7.702 151.054 7.91667 151.577 8.346C152.099 8.77533 152.379 9.36333 152.417 10.11H151.143C151.115 9.70867 150.951 9.38667 150.653 9.144C150.363 8.90133 149.971 8.78 149.477 8.78C149.019 8.78 148.655 8.878 148.385 9.074C148.114 9.27 147.979 9.52667 147.979 9.844C147.979 10.096 148.058 10.306 148.217 10.474C148.385 10.6327 148.59 10.7633 148.833 10.866C149.085 10.9593 149.43 11.0667 149.869 11.188C150.419 11.3373 150.867 11.4867 151.213 11.636C151.558 11.776 151.852 11.9907 152.095 12.28C152.347 12.5693 152.477 12.9473 152.487 13.414C152.487 13.834 152.37 14.212 152.137 14.548C151.903 14.884 151.572 15.15 151.143 15.346C150.723 15.5327 150.237 15.626 149.687 15.626Z" fill="#A8A8A8"/>
</svg>
