<svg width="58" height="85" viewBox="0 0 58 85" fill="none" xmlns="http://www.w3.org/2000/svg">
<path d="M14.688 73.245C14.688 72.157 14.9333 71.181 15.424 70.317C15.9147 69.4423 16.5813 68.7596 17.424 68.269C18.2773 67.7783 19.2213 67.533 20.256 67.533C21.472 67.533 22.5333 67.8263 23.44 68.413C24.3467 68.9996 25.008 69.8316 25.424 70.909H23.68C23.3707 70.237 22.9227 69.7196 22.336 69.357C21.76 68.9943 21.0667 68.813 20.256 68.813C19.4773 68.813 18.7787 68.9943 18.16 69.357C17.5413 69.7196 17.056 70.237 16.704 70.909C16.352 71.5703 16.176 72.349 16.176 73.245C16.176 74.1303 16.352 74.909 16.704 75.581C17.056 76.2423 17.5413 76.7543 18.16 77.117C18.7787 77.4796 19.4773 77.661 20.256 77.661C21.0667 77.661 21.76 77.485 22.336 77.133C22.9227 76.7703 23.3707 76.253 23.68 75.581H25.424C25.008 76.6476 24.3467 77.4743 23.44 78.061C22.5333 78.637 21.472 78.925 20.256 78.925C19.2213 78.925 18.2773 78.685 17.424 78.205C16.5813 77.7143 15.9147 77.037 15.424 76.173C14.9333 75.309 14.688 74.333 14.688 73.245ZM27.0474 74.413C27.0474 73.517 27.2287 72.733 27.5914 72.061C27.954 71.3783 28.45 70.8503 29.0794 70.477C29.7194 70.1036 30.4287 69.917 31.2074 69.917C31.9754 69.917 32.642 70.0823 33.2074 70.413C33.7727 70.7436 34.194 71.1596 34.4714 71.661V70.061H35.9434V78.829H34.4714V77.197C34.1834 77.709 33.7514 78.1356 33.1754 78.477C32.61 78.8076 31.9487 78.973 31.1914 78.973C30.4127 78.973 29.7087 78.781 29.0794 78.397C28.45 78.013 27.954 77.4743 27.5914 76.781C27.2287 76.0876 27.0474 75.2983 27.0474 74.413ZM34.4714 74.429C34.4714 73.7676 34.338 73.1916 34.0714 72.701C33.8047 72.2103 33.442 71.837 32.9834 71.581C32.5354 71.3143 32.0394 71.181 31.4954 71.181C30.9514 71.181 30.4554 71.309 30.0074 71.565C29.5594 71.821 29.202 72.1943 28.9354 72.685C28.6687 73.1756 28.5354 73.7516 28.5354 74.413C28.5354 75.085 28.6687 75.6716 28.9354 76.173C29.202 76.6636 29.5594 77.0423 30.0074 77.309C30.4554 77.565 30.9514 77.693 31.4954 77.693C32.0394 77.693 32.5354 77.565 32.9834 77.309C33.442 77.0423 33.8047 76.6636 34.0714 76.173C34.338 75.6716 34.4714 75.0903 34.4714 74.429ZM39.8599 71.485C40.1159 70.9836 40.4785 70.5943 40.9479 70.317C41.4279 70.0396 42.0092 69.901 42.6919 69.901V71.405H42.3079C40.6759 71.405 39.8599 72.2903 39.8599 74.061V78.829H38.4039V70.061H39.8599V71.485Z" fill="#696969"/>
<path d="M21.2828 34.6363L17.661 31.0146C17.3134 30.6654 16.9 30.3886 16.4448 30.2002C15.9895 30.0117 15.5014 29.9153 15.0087 29.9166H12.5007C12.3983 29.91 12.2956 29.9244 12.199 29.959C12.1023 29.9936 12.0139 30.0477 11.939 30.1179C11.8641 30.1881 11.8044 30.2729 11.7636 30.367C11.7228 30.4612 11.7017 30.5628 11.7017 30.6654C11.7017 30.768 11.7228 30.8696 11.7636 30.9637C11.8044 31.0579 11.8641 31.1427 11.939 31.2129C12.0139 31.2831 12.1023 31.3372 12.199 31.3718C12.2956 31.4064 12.3983 31.4208 12.5007 31.4142H15.0087C15.6047 31.4162 16.1759 31.653 16.5985 32.0731L18.9402 34.4148H12.5007C12.3105 34.4272 12.1321 34.5115 12.0018 34.6505C11.8715 34.7896 11.7989 34.973 11.7989 35.1636C11.7989 35.3542 11.8715 35.5377 12.0018 35.6768C12.1321 35.8158 12.3105 35.9001 12.5007 35.9124H20.7515C20.8998 35.9121 21.0447 35.868 21.1679 35.7855C21.2911 35.7031 21.3872 35.586 21.444 35.4491C21.5008 35.3121 21.5158 35.1614 21.4871 35.0159C21.4584 34.8705 21.3873 34.7367 21.2828 34.6316V34.6363Z" fill="#696969"/>
<path d="M20.75 38.1249C20.551 38.1249 20.3601 38.204 20.2194 38.3447C20.0787 38.4854 19.9996 38.6762 19.9996 38.8753V41.1256C19.9994 41.3245 19.9203 41.5152 19.7796 41.6559C19.6389 41.7966 19.4482 41.8757 19.2492 41.8759H14.7487C14.5497 41.8757 14.359 41.7966 14.2183 41.6559C14.0776 41.5152 13.9985 41.3245 13.9983 41.1256V38.1249C14.0049 38.0225 13.9905 37.9198 13.9559 37.8232C13.9213 37.7265 13.8672 37.6381 13.797 37.5632C13.7268 37.4883 13.642 37.4286 13.5479 37.3878C13.4537 37.347 13.3521 37.3259 13.2495 37.3259C13.1469 37.3259 13.0453 37.347 12.9512 37.3878C12.857 37.4286 12.7722 37.4883 12.702 37.5632C12.6318 37.6381 12.5777 37.7265 12.5431 37.8232C12.5085 37.9198 12.4941 38.0225 12.5007 38.1249V41.1256C12.5013 41.7222 12.7386 42.2942 13.1605 42.7161C13.5824 43.1379 14.1544 43.3752 14.751 43.3758H19.2524C19.849 43.3752 20.421 43.1379 20.8429 42.7161C21.2648 42.2942 21.5021 41.7222 21.5027 41.1256V38.8753C21.5027 38.7765 21.4832 38.6787 21.4453 38.5875C21.4075 38.4964 21.352 38.4135 21.2821 38.3438C21.2121 38.2741 21.1292 38.2189 21.0378 38.1813C20.9465 38.1438 20.8487 38.1246 20.75 38.1249Z" fill="#696969"/>
<path d="M43.6005 25.4585C41.5331 24.3771 36.893 23.8727 29.0024 23.8727C21.1117 23.8727 16.4701 24.3771 14.4042 25.4585C12.0483 26.6881 11 28.7437 11 32.1219C11.0156 34.2099 11.2759 36.2889 11.7756 38.3163C11.8179 38.4761 11.9119 38.6173 12.043 38.718C12.174 38.8186 12.3347 38.8731 12.4999 38.8728H19.0735L21.911 40.2916C22.0153 40.3435 22.1302 40.3704 22.2467 40.3704H35.7493C35.8653 40.3706 35.9798 40.3436 36.0835 40.2916L38.9265 38.8728H45.5001C45.6653 38.8731 45.826 38.8186 45.957 38.718C46.0881 38.6173 46.1821 38.4761 46.2244 38.3163C46.7241 36.2889 46.9844 34.2099 47 32.1219C47.0039 28.7437 45.9556 26.6881 43.6005 25.4585ZM44.9113 37.3745H38.7547C38.6381 37.374 38.5231 37.401 38.4189 37.4533L35.5759 38.872H22.4288L19.5913 37.4533C19.487 37.4014 19.3721 37.3744 19.2555 37.3745H13.0942C12.716 35.6487 12.516 33.8886 12.4976 32.1219C12.4976 29.297 13.2503 27.7506 15.0947 26.7858C16.8918 25.8463 21.5697 25.371 29 25.371C36.4303 25.371 41.1082 25.844 42.9053 26.7858C44.7489 27.7506 45.5024 29.297 45.5024 32.1219C45.4848 33.8883 45.2868 35.6483 44.9113 37.3745Z" fill="#696969"/>
<path d="M45.5039 34.4172H39.0636L41.4038 32.0755C41.8271 31.6553 42.3987 31.4186 42.9951 31.4165H45.5032C45.6933 31.4042 45.8717 31.3199 46.0021 31.1808C46.1324 31.0418 46.2049 30.8583 46.2049 30.6677C46.2049 30.4771 46.1324 30.2937 46.0021 30.1546C45.8717 30.0155 45.6933 29.9313 45.5032 29.919H42.9951C42.5024 29.9177 42.0143 30.014 41.5591 30.2025C41.1039 30.3909 40.6905 30.6677 40.3428 31.0169L36.7211 34.6386C36.6165 34.7438 36.5454 34.8775 36.5168 35.023C36.4881 35.1684 36.5031 35.3192 36.5599 35.4561C36.6167 35.5931 36.7127 35.7101 36.836 35.7926C36.9592 35.8751 37.1041 35.9192 37.2523 35.9195H45.5032C45.6933 35.9071 45.8717 35.8229 46.0021 35.6838C46.1324 35.5447 46.2049 35.3613 46.2049 35.1707C46.2049 34.9801 46.1324 34.7966 46.0021 34.6576C45.8717 34.5185 45.6933 34.4342 45.5032 34.4219L45.5039 34.4172Z" fill="#696969"/>
<path d="M37.9334 30.3486C37.8728 30.2195 37.7767 30.1104 37.6564 30.0339C37.5361 29.9574 37.3965 29.9167 37.254 29.9166H20.7515C20.6089 29.9164 20.4691 29.9569 20.3487 30.0334C20.2282 30.1099 20.1321 30.2191 20.0716 30.3483C20.0111 30.4775 19.9887 30.6213 20.0071 30.7628C20.0255 30.9043 20.0839 31.0376 20.1754 31.147L23.9256 35.6476C23.996 35.7321 24.0841 35.8001 24.1836 35.8468C24.2832 35.8935 24.3918 35.9178 24.5018 35.9179H33.503C33.6129 35.9178 33.7215 35.8935 33.8211 35.8468C33.9206 35.8001 34.0087 35.7321 34.0791 35.6476L37.8294 31.147C37.921 31.0377 37.9795 30.9045 37.998 30.763C38.0164 30.6215 37.994 30.4777 37.9334 30.3486ZM33.1506 34.4172H24.8533L22.3524 31.4166H35.6516L33.1506 34.4172Z" fill="#696969"/>
<path d="M43.9433 25.9527C43.0897 23.9901 40.2333 17.523 39.2402 16.6789C38.0027 15.6274 34.4574 15 29.7527 15H28.2551C23.5504 15 20.0059 15.6306 18.7676 16.6773C17.7745 17.5222 14.9165 23.9894 14.0645 25.9512C13.9935 26.1323 13.9955 26.3338 14.0701 26.5135C14.1447 26.6931 14.2861 26.8368 14.4645 26.9143C14.6429 26.9918 14.8444 26.9971 15.0266 26.9291C15.2088 26.861 15.3575 26.7249 15.4415 26.5494C17.1353 22.6502 19.2067 18.3183 19.7395 17.8217C20.3172 17.3315 22.7606 16.4999 28.252 16.4999H29.7495C35.2433 16.4999 37.6867 17.3307 38.262 17.8186C38.7972 18.3183 40.8694 22.6494 42.5632 26.5494C42.6424 26.732 42.791 26.8757 42.9761 26.9488C43.1612 27.0218 43.3678 27.0184 43.5504 26.9392C43.733 26.8599 43.8767 26.7114 43.9498 26.5263C44.0229 26.3412 44.0194 26.1346 43.9402 25.952L43.9433 25.9527Z" fill="#696969"/>
<path d="M44.7536 37.3745C44.5546 37.3745 44.3638 37.4536 44.2231 37.5943C44.0823 37.735 44.0033 37.9259 44.0033 38.1249V41.1255C44.0031 41.3245 43.9239 41.5152 43.7833 41.6559C43.6426 41.7965 43.4519 41.8757 43.2529 41.8759H38.7523C38.5534 41.8757 38.3626 41.7965 38.222 41.6559C38.0813 41.5152 38.0022 41.3245 38.0019 41.1255V38.8752C38.0086 38.7728 37.9942 38.6701 37.9596 38.5735C37.9249 38.4769 37.8708 38.3884 37.8007 38.3135C37.7305 38.2386 37.6457 38.1789 37.5515 38.1381C37.4573 38.0973 37.3558 38.0763 37.2532 38.0763C37.1505 38.0763 37.049 38.0973 36.9548 38.1381C36.8606 38.1789 36.7758 38.2386 36.7057 38.3135C36.6355 38.3884 36.5814 38.4769 36.5468 38.5735C36.5122 38.6701 36.4977 38.7728 36.5044 38.8752V41.1255C36.505 41.7222 36.7423 42.2942 37.1642 42.716C37.5861 43.1379 38.1581 43.3752 38.7547 43.3758H43.2553C43.8519 43.3752 44.4239 43.1379 44.8458 42.716C45.2677 42.2942 45.5049 41.7222 45.5056 41.1255V38.1249C45.5056 38.0262 45.4861 37.9285 45.4483 37.8374C45.4105 37.7462 45.3551 37.6634 45.2852 37.5937C45.2154 37.524 45.1325 37.4688 45.0413 37.4312C44.95 37.3935 44.8523 37.3743 44.7536 37.3745Z" fill="#696969"/>
</svg>
