<svg width="68" height="68" viewBox="0 0 68 68" fill="none" xmlns="http://www.w3.org/2000/svg">
<g filter="url(#filter0_d_14_22)">
<path d="M34 68C52.7777 68 68 52.7777 68 34C68 15.2223 52.7777 0 34 0C15.2223 0 0 15.2223 0 34C0 52.7777 15.2223 68 34 68Z" fill="#EFEEEE"/>
</g>
<path d="M9.688 39.032V42.76H13.752V43.96H9.688V47.8H14.232V49H8.232V37.832H14.232V39.032H9.688ZM21.0111 49L18.9311 45.736L16.9311 49H15.4111L18.2431 44.648L15.4111 40.232H17.0591L19.1391 43.48L21.1231 40.232H22.6431L19.8271 44.568L22.6591 49H21.0111ZM25.5474 41.848C25.8354 41.3467 26.262 40.9307 26.8274 40.6C27.4034 40.2587 28.07 40.088 28.8274 40.088C29.606 40.088 30.31 40.2747 30.9394 40.648C31.5794 41.0213 32.0807 41.5493 32.4434 42.232C32.806 42.904 32.9874 43.688 32.9874 44.584C32.9874 45.4693 32.806 46.2587 32.4434 46.952C32.0807 47.6453 31.5794 48.184 30.9394 48.568C30.31 48.952 29.606 49.144 28.8274 49.144C28.0807 49.144 27.4194 48.9787 26.8434 48.648C26.278 48.3067 25.846 47.8853 25.5474 47.384V53.16H24.0914V40.232H25.5474V41.848ZM31.4994 44.584C31.4994 43.9227 31.366 43.3467 31.0994 42.856C30.8327 42.3653 30.47 41.992 30.0114 41.736C29.5634 41.48 29.0674 41.352 28.5234 41.352C27.99 41.352 27.494 41.4853 27.0354 41.752C26.5874 42.008 26.2247 42.3867 25.9474 42.888C25.6807 43.3787 25.5474 43.9493 25.5474 44.6C25.5474 45.2613 25.6807 45.8427 25.9474 46.344C26.2247 46.8347 26.5874 47.2133 27.0354 47.48C27.494 47.736 27.99 47.864 28.5234 47.864C29.0674 47.864 29.5634 47.736 30.0114 47.48C30.47 47.2133 30.8327 46.8347 31.0994 46.344C31.366 45.8427 31.4994 45.256 31.4994 44.584ZM36.3599 37.16V49H34.9039V37.16H36.3599ZM42.6654 49.144C41.844 49.144 41.0974 48.9573 40.4254 48.584C39.764 48.2107 39.2414 47.6827 38.8574 47C38.484 46.3067 38.2974 45.5067 38.2974 44.6C38.2974 43.704 38.4894 42.9147 38.8734 42.232C39.268 41.5387 39.8014 41.0107 40.4734 40.648C41.1454 40.2747 41.8974 40.088 42.7294 40.088C43.5614 40.088 44.3134 40.2747 44.9854 40.648C45.6574 41.0107 46.1854 41.5333 46.5694 42.216C46.964 42.8987 47.1614 43.6933 47.1614 44.6C47.1614 45.5067 46.9587 46.3067 46.5534 47C46.1587 47.6827 45.62 48.2107 44.9374 48.584C44.2547 48.9573 43.4974 49.144 42.6654 49.144ZM42.6654 47.864C43.188 47.864 43.6787 47.7413 44.1374 47.496C44.596 47.2507 44.964 46.8827 45.2414 46.392C45.5294 45.9013 45.6734 45.304 45.6734 44.6C45.6734 43.896 45.5347 43.2987 45.2574 42.808C44.98 42.3173 44.6174 41.9547 44.1694 41.72C43.7214 41.4747 43.236 41.352 42.7134 41.352C42.18 41.352 41.6894 41.4747 41.2414 41.72C40.804 41.9547 40.452 42.3173 40.1854 42.808C39.9187 43.2987 39.7854 43.896 39.7854 44.6C39.7854 45.3147 39.9134 45.9173 40.1694 46.408C40.436 46.8987 40.788 47.2667 41.2254 47.512C41.6627 47.7467 42.1427 47.864 42.6654 47.864ZM50.5318 41.656C50.7878 41.1547 51.1504 40.7653 51.6198 40.488C52.0998 40.2107 52.6811 40.072 53.3638 40.072V41.576H52.9798C51.3478 41.576 50.5318 42.4613 50.5318 44.232V49H49.0758V40.232H50.5318V41.656ZM63.0445 44.28C63.0445 44.5573 63.0285 44.8507 62.9965 45.16H55.9885C56.0418 46.024 56.3352 46.7013 56.8685 47.192C57.4125 47.672 58.0685 47.912 58.8365 47.912C59.4658 47.912 59.9885 47.768 60.4045 47.48C60.8312 47.1813 61.1298 46.7867 61.3005 46.296H62.8685C62.6338 47.1387 62.1645 47.8267 61.4605 48.36C60.7565 48.8827 59.8818 49.144 58.8365 49.144C58.0045 49.144 57.2578 48.9573 56.5965 48.584C55.9458 48.2107 55.4338 47.6827 55.0605 47C54.6872 46.3067 54.5005 45.5067 54.5005 44.6C54.5005 43.6933 54.6818 42.8987 55.0445 42.216C55.4072 41.5333 55.9138 41.0107 56.5645 40.648C57.2258 40.2747 57.9832 40.088 58.8365 40.088C59.6685 40.088 60.4045 40.2693 61.0445 40.632C61.6845 40.9947 62.1752 41.496 62.5165 42.136C62.8685 42.7653 63.0445 43.48 63.0445 44.28ZM61.5405 43.976C61.5405 43.4213 61.4178 42.9467 61.1725 42.552C60.9272 42.1467 60.5912 41.8427 60.1645 41.64C59.7485 41.4267 59.2845 41.32 58.7725 41.32C58.0365 41.32 57.4072 41.5547 56.8845 42.024C56.3725 42.4933 56.0792 43.144 56.0045 43.976H61.5405Z" fill="#2C3CDE"/>
<path d="M33 28C36.866 28 40 24.866 40 21C40 17.134 36.866 14 33 14C29.134 14 26 17.134 26 21C26 24.866 29.134 28 33 28Z" stroke="#2D3DDF" stroke-width="1.5" stroke-linecap="round" stroke-linejoin="round"/>
<path d="M42 30L38.5 26.5" stroke="#2D3DDF" stroke-width="1.5" stroke-linecap="round" stroke-linejoin="round"/>
<defs>
<filter id="filter0_d_14_22" x="-7" y="-7" width="100" height="100" filterUnits="userSpaceOnUse" color-interpolation-filters="sRGB">
<feFlood flood-opacity="0" result="BackgroundImageFix"/>
<feColorMatrix in="SourceAlpha" type="matrix" values="0 0 0 0 0 0 0 0 0 0 0 0 0 0 0 0 0 0 127 0" result="hardAlpha"/>
<feOffset dx="9" dy="9"/>
<feGaussianBlur stdDeviation="8"/>
<feColorMatrix type="matrix" values="0 0 0 0 0 0 0 0 0 0 0 0 0 0 0 0 0 0 0.22 0"/>
<feBlend mode="normal" in2="BackgroundImageFix" result="effect1_dropShadow_14_22"/>
<feBlend mode="normal" in="SourceGraphic" in2="effect1_dropShadow_14_22" result="shape"/>
</filter>
</defs>
</svg>
