<svg width="58" height="85" viewBox="0 0 58 85" fill="none" xmlns="http://www.w3.org/2000/svg">
<path d="M15.536 67.848V69.032H10.688V72.792H14.624V73.976H10.688V79H9.232V67.848H15.536ZM18.7505 67.16V79H17.2945V67.16H18.7505ZM21.984 68.808C21.7067 68.808 21.472 68.712 21.28 68.52C21.088 68.328 20.992 68.0933 20.992 67.816C20.992 67.5387 21.088 67.304 21.28 67.112C21.472 66.92 21.7067 66.824 21.984 66.824C22.2507 66.824 22.4747 66.92 22.656 67.112C22.848 67.304 22.944 67.5387 22.944 67.816C22.944 68.0933 22.848 68.328 22.656 68.52C22.4747 68.712 22.2507 68.808 21.984 68.808ZM22.688 70.232V79H21.232V70.232H22.688ZM28.7855 70.088C29.5428 70.088 30.2042 70.2533 30.7695 70.584C31.3455 70.9147 31.7722 71.3307 32.0495 71.832V70.232H33.5215V79.192C33.5215 79.992 33.3508 80.7013 33.0095 81.32C32.6682 81.9493 32.1775 82.44 31.5375 82.792C30.9082 83.144 30.1722 83.32 29.3295 83.32C28.1775 83.32 27.2175 83.048 26.4495 82.504C25.6815 81.96 25.2282 81.2187 25.0895 80.28H26.5295C26.6895 80.8133 27.0202 81.24 27.5215 81.56C28.0228 81.8907 28.6255 82.056 29.3295 82.056C30.1295 82.056 30.7802 81.8053 31.2815 81.304C31.7935 80.8027 32.0495 80.0987 32.0495 79.192V77.352C31.7615 77.864 31.3348 78.2907 30.7695 78.632C30.2042 78.9733 29.5428 79.144 28.7855 79.144C28.0068 79.144 27.2975 78.952 26.6575 78.568C26.0282 78.184 25.5322 77.6453 25.1695 76.952C24.8068 76.2587 24.6255 75.4693 24.6255 74.584C24.6255 73.688 24.8068 72.904 25.1695 72.232C25.5322 71.5493 26.0282 71.0213 26.6575 70.648C27.2975 70.2747 28.0068 70.088 28.7855 70.088ZM32.0495 74.6C32.0495 73.9387 31.9162 73.3627 31.6495 72.872C31.3828 72.3813 31.0202 72.008 30.5615 71.752C30.1135 71.4853 29.6175 71.352 29.0735 71.352C28.5295 71.352 28.0335 71.48 27.5855 71.736C27.1375 71.992 26.7802 72.3653 26.5135 72.856C26.2468 73.3467 26.1135 73.9227 26.1135 74.584C26.1135 75.256 26.2468 75.8427 26.5135 76.344C26.7802 76.8347 27.1375 77.2133 27.5855 77.48C28.0335 77.736 28.5295 77.864 29.0735 77.864C29.6175 77.864 30.1135 77.736 30.5615 77.48C31.0202 77.2133 31.3828 76.8347 31.6495 76.344C31.9162 75.8427 32.0495 75.2613 32.0495 74.6ZM40.334 70.072C40.9953 70.072 41.5927 70.216 42.126 70.504C42.6593 70.7813 43.0753 71.2027 43.374 71.768C43.6833 72.3333 43.838 73.0213 43.838 73.832V79H42.398V74.04C42.398 73.1653 42.1793 72.4987 41.742 72.04C41.3047 71.5707 40.7073 71.336 39.95 71.336C39.182 71.336 38.5687 71.576 38.11 72.056C37.662 72.536 37.438 73.2347 37.438 74.152V79H35.982V67.16H37.438V71.48C37.726 71.032 38.1207 70.6853 38.622 70.44C39.134 70.1947 39.7047 70.072 40.334 70.072ZM47.9924 71.432V76.6C47.9924 77.0267 48.083 77.3307 48.2644 77.512C48.4457 77.6827 48.7604 77.768 49.2084 77.768H50.2804V79H48.9684C48.1577 79 47.5497 78.8133 47.1444 78.44C46.739 78.0667 46.5364 77.4533 46.5364 76.6V71.432H45.4004V70.232H46.5364V68.024H47.9924V70.232H50.2804V71.432H47.9924Z" fill="#696969"/>
<path d="M46.8276 24.5525C46.5724 23.9012 46.09 23.3643 45.4697 23.0409C44.8493 22.7176 44.133 22.6297 43.4528 22.7934L41.4931 21.6136C41.1272 21.3952 40.7175 21.2606 40.2934 21.2194C39.8693 21.1783 39.4413 21.2316 39.0403 21.3755L31.8732 23.9513L25.9869 15.7372C25.9138 15.6366 25.8101 15.5624 25.6913 15.5257C25.5724 15.489 25.4449 15.4919 25.3278 15.5338L22.1226 16.6867C22.0527 16.7112 21.9883 16.7494 21.9333 16.799C21.8782 16.8485 21.8335 16.9085 21.8019 16.9755C21.7702 17.0425 21.7521 17.1151 21.7487 17.1891C21.7453 17.2631 21.7567 17.337 21.7821 17.4066L25.0883 26.3886L17.9615 28.9495L14.1332 24.7206C14.0568 24.6367 13.9572 24.5772 13.847 24.55C13.7369 24.5227 13.6211 24.5287 13.5143 24.5673L11.3744 25.3367C11.3045 25.3612 11.2402 25.3993 11.1851 25.4489C11.1301 25.4985 11.0854 25.5585 11.0537 25.6254C11.0221 25.6924 11.004 25.765 11.0006 25.839C10.9972 25.913 11.0085 25.987 11.0339 26.0566L14.1487 34.5087C14.1889 34.618 14.2618 34.7122 14.3575 34.7784C14.4533 34.8447 14.5671 34.8798 14.6835 34.8789H14.6885L26.7513 34.7326C26.8155 34.7319 26.879 34.7201 26.9392 34.698L28.0074 34.313L31.1229 42.7658C31.1635 42.8748 31.2366 42.9687 31.3322 43.0349C31.4278 43.1011 31.5414 43.1364 31.6577 43.136C31.7242 43.1358 31.7902 43.1241 31.8527 43.1014L35.0629 41.947C35.1796 41.9058 35.2794 41.8271 35.3468 41.7232C35.4141 41.6193 35.4452 41.4961 35.4352 41.3727L34.6425 31.9301L45.1286 28.159C45.6744 27.9631 46.1468 27.604 46.4816 27.1305C46.8164 26.6569 46.9974 26.0918 47 25.5119C46.9996 25.1845 46.9415 24.8597 46.8283 24.5525H46.8276ZM23.0466 17.5507L25.3073 16.7376L30.7633 24.3497L26.1572 26.005L23.0466 17.5507ZM13.8555 30.4253L12.3013 26.2014L13.5447 25.7549L16.8079 29.3642L13.8555 30.4253ZM32.0004 41.8531L28.1063 31.2879L33.2897 29.4243L34.2667 41.0392L32.0004 41.8531ZM44.7393 27.1042L34.545 30.7701L34.3621 28.5984C34.3544 28.5125 34.3269 28.4295 34.2818 28.356C34.2367 28.2824 34.1752 28.2203 34.1021 28.1745C34.028 28.1282 33.9444 28.0992 33.8576 28.0897C33.7707 28.0801 33.6829 28.0903 33.6005 28.1194L27.1816 30.4267C27.1117 30.4517 27.0473 30.4902 26.9923 30.54C26.9373 30.5898 26.8926 30.65 26.8608 30.7171C26.8292 30.7839 26.8112 30.8564 26.8079 30.9303C26.8047 31.0042 26.8162 31.078 26.8418 31.1473L27.6189 33.2597L26.6411 33.6129L15.0791 33.7542L14.2455 31.4822L39.4288 22.4324C39.6698 22.3456 39.9269 22.3133 40.1819 22.3377C40.4368 22.3622 40.6831 22.4427 40.9032 22.5737L41.4486 22.9022L39.7771 23.5034L40.1664 24.5631L42.6927 23.6525L43.0784 23.8849C43.1509 23.9285 43.2321 23.9557 43.3162 23.9643C43.4003 23.973 43.4853 23.963 43.5652 23.935C43.989 23.7865 44.4539 23.808 44.8622 23.9949C45.2706 24.1818 45.5906 24.5197 45.7552 24.9375C45.8325 25.1465 45.8674 25.3688 45.8579 25.5915C45.8484 25.8141 45.7946 26.0327 45.6998 26.2343C45.605 26.436 45.471 26.6168 45.3056 26.7661C45.1402 26.9155 44.9467 27.0304 44.7365 27.1042H44.7393Z" fill="#696969" stroke="#707070" stroke-width="0.5"/>
<path d="M35.9389 25.0647L37.1093 24.6389L37.5354 25.81L36.365 26.2358L35.9389 25.0647Z" fill="#696969" stroke="#707070" stroke-width="0.5"/>
<path d="M33.8075 25.8489L34.9779 25.423L35.404 26.5941L34.2336 27.02L33.8075 25.8489Z" fill="#696969" stroke="#707070" stroke-width="0.5"/>
<path d="M31.6768 26.6344L32.8472 26.2086L33.2733 27.3797L32.1028 27.8055L31.6768 26.6344Z" fill="#696969" stroke="#707070" stroke-width="0.5"/>
<path d="M29.5447 27.4186L30.7152 26.9927L31.1413 28.1638L29.9708 28.5897L29.5447 27.4186Z" fill="#696969" stroke="#707070" stroke-width="0.5"/>
<path d="M27.4133 28.2035L28.5837 27.7776L29.0098 28.9487L27.8394 29.3746L27.4133 28.2035Z" fill="#696969" stroke="#707070" stroke-width="0.5"/>
<path d="M25.2819 28.9891L26.4524 28.5633L26.8784 29.7344L25.708 30.1602L25.2819 28.9891Z" fill="#696969" stroke="#707070" stroke-width="0.5"/>
<path d="M23.1505 29.7733L24.3209 29.3475L24.747 30.5186L23.5765 30.9444L23.1505 29.7733Z" fill="#696969" stroke="#707070" stroke-width="0.5"/>
<path d="M21.0142 30.5652L22.1853 30.1391L22.6113 31.3102L21.4402 31.7363L21.0142 30.5652Z" fill="#696969" stroke="#707070" stroke-width="0.5"/>
<path d="M18.8821 31.3494L20.0532 30.9233L20.4793 32.0944L19.3082 32.5205L18.8821 31.3494Z" fill="#696969" stroke="#707070" stroke-width="0.5"/>
</svg>
