<svg width="68" height="68" viewBox="0 0 68 68" fill="none" xmlns="http://www.w3.org/2000/svg">
<path d="M24.9512 18.647L33.5002 11.998L42.0512 18.647V29.098C42.0512 29.602 41.851 30.0852 41.4947 30.4415C41.1384 30.7979 40.6551 30.998 40.1512 30.998H26.8512C26.3473 30.998 25.864 30.7979 25.5077 30.4415C25.1513 30.0852 24.9512 29.602 24.9512 29.098V18.647Z" stroke="white" stroke-width="1.5" stroke-linecap="round" stroke-linejoin="round"/>
<path d="M30.5001 30.9961V20.9961H36.5001V30.9961" stroke="white" stroke-width="1.5" stroke-linecap="round" stroke-linejoin="round"/>
<path d="M19.824 38.8441V49.9961H18.368V44.9401H12.688V49.9961H11.232V38.8441H12.688V43.7401H18.368V38.8441H19.824ZM26.1341 50.1401C25.3128 50.1401 24.5661 49.9534 23.8941 49.5801C23.2328 49.2068 22.7101 48.6788 22.3261 47.9961C21.9528 47.3028 21.7661 46.5028 21.7661 45.5961C21.7661 44.7001 21.9581 43.9108 22.3421 43.2281C22.7368 42.5348 23.2701 42.0068 23.9421 41.6441C24.6141 41.2708 25.3661 41.0841 26.1981 41.0841C27.0301 41.0841 27.7821 41.2708 28.4541 41.6441C29.1261 42.0068 29.6541 42.5294 30.0381 43.2121C30.4328 43.8948 30.6301 44.6894 30.6301 45.5961C30.6301 46.5028 30.4275 47.3028 30.0221 47.9961C29.6275 48.6788 29.0888 49.2068 28.4061 49.5801C27.7235 49.9534 26.9661 50.1401 26.1341 50.1401ZM26.1341 48.8601C26.6568 48.8601 27.1475 48.7374 27.6061 48.4921C28.0648 48.2468 28.4328 47.8788 28.7101 47.3881C28.9981 46.8974 29.1421 46.3001 29.1421 45.5961C29.1421 44.8921 29.0035 44.2948 28.7261 43.8041C28.4488 43.3134 28.0861 42.9508 27.6381 42.7161C27.1901 42.4708 26.7048 42.3481 26.1821 42.3481C25.6488 42.3481 25.1581 42.4708 24.7101 42.7161C24.2728 42.9508 23.9208 43.3134 23.6541 43.8041C23.3875 44.2948 23.2541 44.8921 23.2541 45.5961C23.2541 46.3108 23.3821 46.9134 23.6381 47.4041C23.9048 47.8948 24.2568 48.2628 24.6941 48.5081C25.1315 48.7428 25.6115 48.8601 26.1341 48.8601ZM43.0885 41.0681C43.7712 41.0681 44.3792 41.2121 44.9125 41.5001C45.4458 41.7774 45.8672 42.1988 46.1765 42.7641C46.4858 43.3294 46.6405 44.0174 46.6405 44.8281V49.9961H45.2005V45.0361C45.2005 44.1614 44.9818 43.4948 44.5445 43.0361C44.1178 42.5668 43.5365 42.3321 42.8005 42.3321C42.0432 42.3321 41.4405 42.5774 40.9925 43.0681C40.5445 43.5481 40.3205 44.2468 40.3205 45.1641V49.9961H38.8805V45.0361C38.8805 44.1614 38.6618 43.4948 38.2245 43.0361C37.7978 42.5668 37.2165 42.3321 36.4805 42.3321C35.7232 42.3321 35.1205 42.5774 34.6725 43.0681C34.2245 43.5481 34.0005 44.2468 34.0005 45.1641V49.9961H32.5445V41.2281H34.0005V42.4921C34.2885 42.0334 34.6725 41.6814 35.1525 41.4361C35.6432 41.1908 36.1818 41.0681 36.7685 41.0681C37.5045 41.0681 38.1552 41.2334 38.7205 41.5641C39.2858 41.8948 39.7072 42.3801 39.9845 43.0201C40.2298 42.4014 40.6352 41.9214 41.2005 41.5801C41.7658 41.2388 42.3952 41.0681 43.0885 41.0681ZM57.0289 45.2761C57.0289 45.5534 57.0129 45.8468 56.9809 46.1561H49.9729C50.0262 47.0201 50.3195 47.6974 50.8529 48.1881C51.3969 48.6681 52.0529 48.9081 52.8209 48.9081C53.4502 48.9081 53.9729 48.7641 54.3889 48.4761C54.8155 48.1774 55.1142 47.7828 55.2849 47.2921H56.8529C56.6182 48.1348 56.1489 48.8228 55.4449 49.3561C54.7409 49.8788 53.8662 50.1401 52.8209 50.1401C51.9889 50.1401 51.2422 49.9534 50.5809 49.5801C49.9302 49.2068 49.4182 48.6788 49.0449 47.9961C48.6715 47.3028 48.4849 46.5028 48.4849 45.5961C48.4849 44.6894 48.6662 43.8948 49.0289 43.2121C49.3915 42.5294 49.8982 42.0068 50.5489 41.6441C51.2102 41.2708 51.9675 41.0841 52.8209 41.0841C53.6529 41.0841 54.3889 41.2654 55.0289 41.6281C55.6689 41.9908 56.1595 42.4921 56.5009 43.1321C56.8529 43.7614 57.0289 44.4761 57.0289 45.2761ZM55.5249 44.9721C55.5249 44.4174 55.4022 43.9428 55.1569 43.5481C54.9115 43.1428 54.5755 42.8388 54.1489 42.6361C53.7329 42.4228 53.2689 42.3161 52.7569 42.3161C52.0209 42.3161 51.3915 42.5508 50.8689 43.0201C50.3569 43.4894 50.0635 44.1401 49.9889 44.9721H55.5249Z" fill="white"/>
</svg>
