<svg width="59" height="85" viewBox="0 0 59 85" fill="none" xmlns="http://www.w3.org/2000/svg">
<path d="M18.564 67.848V79H17.108V73.944H11.428V79H9.97199V67.848H11.428V72.744H17.108V67.848H18.564ZM24.8741 79.144C24.0528 79.144 23.3061 78.9573 22.6341 78.584C21.9728 78.2107 21.4501 77.6827 21.0661 77C20.6928 76.3067 20.5061 75.5067 20.5061 74.6C20.5061 73.704 20.6981 72.9147 21.0821 72.232C21.4768 71.5387 22.0101 71.0107 22.6821 70.648C23.3541 70.2747 24.1061 70.088 24.9381 70.088C25.7701 70.088 26.5221 70.2747 27.1941 70.648C27.8661 71.0107 28.3941 71.5333 28.7781 72.216C29.1728 72.8987 29.3701 73.6933 29.3701 74.6C29.3701 75.5067 29.1674 76.3067 28.7621 77C28.3674 77.6827 27.8288 78.2107 27.1461 78.584C26.4634 78.9573 25.7061 79.144 24.8741 79.144ZM24.8741 77.864C25.3968 77.864 25.8874 77.7413 26.3461 77.496C26.8048 77.2507 27.1728 76.8827 27.4501 76.392C27.7381 75.9013 27.8821 75.304 27.8821 74.6C27.8821 73.896 27.7434 73.2987 27.4661 72.808C27.1888 72.3173 26.8261 71.9547 26.3781 71.72C25.9301 71.4747 25.4448 71.352 24.9221 71.352C24.3888 71.352 23.8981 71.4747 23.4501 71.72C23.0128 71.9547 22.6608 72.3173 22.3941 72.808C22.1274 73.2987 21.9941 73.896 21.9941 74.6C21.9941 75.3147 22.1221 75.9173 22.3781 76.408C22.6448 76.8987 22.9968 77.2667 23.4341 77.512C23.8714 77.7467 24.3514 77.864 24.8741 77.864ZM33.0605 71.432V76.6C33.0605 77.0267 33.1512 77.3307 33.3325 77.512C33.5138 77.6827 33.8285 77.768 34.2765 77.768H35.3485V79H34.0365C33.2258 79 32.6178 78.8133 32.2125 78.44C31.8072 78.0667 31.6045 77.4533 31.6045 76.6V71.432H30.4685V70.232H31.6045V68.024H33.0605V70.232H35.3485V71.432H33.0605ZM45.1126 74.28C45.1126 74.5573 45.0966 74.8507 45.0646 75.16H38.0566C38.1099 76.024 38.4033 76.7013 38.9366 77.192C39.4806 77.672 40.1366 77.912 40.9046 77.912C41.5339 77.912 42.0566 77.768 42.4726 77.48C42.8993 77.1813 43.1979 76.7867 43.3686 76.296H44.9366C44.7019 77.1387 44.2326 77.8267 43.5286 78.36C42.8246 78.8827 41.9499 79.144 40.9046 79.144C40.0726 79.144 39.3259 78.9573 38.6646 78.584C38.0139 78.2107 37.5019 77.6827 37.1286 77C36.7553 76.3067 36.5686 75.5067 36.5686 74.6C36.5686 73.6933 36.7499 72.8987 37.1126 72.216C37.4753 71.5333 37.9819 71.0107 38.6326 70.648C39.2939 70.2747 40.0513 70.088 40.9046 70.088C41.7366 70.088 42.4726 70.2693 43.1126 70.632C43.7526 70.9947 44.2433 71.496 44.5846 72.136C44.9366 72.7653 45.1126 73.48 45.1126 74.28ZM43.6086 73.976C43.6086 73.4213 43.4859 72.9467 43.2406 72.552C42.9953 72.1467 42.6593 71.8427 42.2326 71.64C41.8166 71.4267 41.3526 71.32 40.8406 71.32C40.1046 71.32 39.4753 71.5547 38.9526 72.024C38.4406 72.4933 38.1473 73.144 38.0726 73.976H43.6086ZM48.4905 67.16V79H47.0345V67.16H48.4905Z" fill="#221F3C"/>
<g filter="url(#filter0_d_2_15)">
<path opacity="0.759" d="M29.236 58C45.2522 58 58.236 45.0163 58.236 29C58.236 12.9837 45.2522 0 29.236 0C13.2197 0 0.235962 12.9837 0.235962 29C0.235962 45.0163 13.2197 58 29.236 58Z" fill="#2D3DDF"/>
</g>
<path d="M26.236 26.8H27.436V28.0001H26.236V26.8Z" fill="white"/>
<path d="M28.636 26.8H29.836V28.0001H28.636V26.8Z" fill="white"/>
<path d="M31.0359 26.8H32.236V28.0001H31.0359V26.8Z" fill="white"/>
<path d="M26.236 29.2H27.436V30.4H26.236V29.2Z" fill="white"/>
<path d="M28.636 29.2H29.836V30.4H28.636V29.2Z" fill="white"/>
<path d="M31.0359 29.2H32.236V30.4H31.0359V29.2Z" fill="white"/>
<path d="M26.236 31.6H27.436V32.8H26.236V31.6Z" fill="white"/>
<path d="M28.636 31.6H29.836V32.8H28.636V31.6Z" fill="white"/>
<path d="M31.0359 31.6H32.236V32.8H31.0359V31.6Z" fill="white"/>
<path d="M26.236 22H27.436V23.2H26.236V22Z" fill="white"/>
<path d="M28.636 22H29.836V23.2H28.636V22Z" fill="white"/>
<path d="M31.0359 22H32.236V23.2H31.0359V22Z" fill="white"/>
<path d="M26.236 24.4H27.436V25.6H26.236V24.4Z" fill="white"/>
<path d="M28.636 24.4H29.836V25.6H28.636V24.4Z" fill="white"/>
<path d="M31.0359 24.4H32.236V25.6H31.0359V24.4Z" fill="white"/>
<path d="M20.8359 24.4H22.6359V25.6H20.8359V24.4Z" fill="white"/>
<path d="M20.8359 27.4H22.6359V28.6H20.8359V27.4Z" fill="white"/>
<path d="M20.8359 30.4H22.6359V31.6H20.8359V30.4Z" fill="white"/>
<path d="M20.8359 33.4H22.6359V34.6H20.8359V33.4Z" fill="white"/>
<path d="M44.836 32.2H43.636C42.9994 32.2 42.389 32.4529 41.9389 32.9029C41.4888 33.353 41.236 33.9635 41.236 34.6V35.836C40.8033 35.9051 40.3926 36.0735 40.036 36.328V33.4H38.836V36.4H34.636V22.6H38.836V32.2H40.036V22C40.036 21.8409 39.9727 21.6883 39.8602 21.5757C39.7477 21.4632 39.5951 21.4 39.436 21.4H34.636V18.4C34.636 18.2409 34.5727 18.0883 34.4602 17.9757C34.3477 17.8632 34.1951 17.8 34.036 17.8H32.236V16.6C32.236 16.5212 32.2204 16.4432 32.1903 16.3704C32.1601 16.2976 32.1159 16.2315 32.0602 16.1757C32.0045 16.12 31.9384 16.0758 31.8656 16.0457C31.7928 16.0155 31.7148 16 31.636 16H26.836C26.6768 16 26.5242 16.0632 26.4117 16.1757C26.2992 16.2883 26.236 16.4409 26.236 16.6V17.8H24.436C24.2768 17.8 24.1242 17.8632 24.0117 17.9757C23.8992 18.0883 23.836 18.2409 23.836 18.4V21.4H19.036C18.8768 21.4 18.7242 21.4632 18.6117 21.5757C18.4992 21.6883 18.436 21.8409 18.436 22V25.6H19.636V22.6H23.836V36.4H19.636V26.8H18.436V36.327C18.0794 36.0725 17.6686 35.9041 17.236 35.835V34.6C17.236 33.9635 16.9831 33.353 16.533 32.9029C16.0829 32.4529 15.4725 32.2 14.836 32.2H13.636C12.9994 32.2 12.389 32.4529 11.9389 32.9029C11.4888 33.353 11.236 33.9635 11.236 34.6V39.4C11.236 39.5591 11.2992 39.7117 11.4117 39.8243C11.5242 39.9368 11.6768 40 11.836 40H46.636C46.7951 40 46.9477 39.9368 47.0602 39.8243C47.1727 39.7117 47.236 39.5591 47.236 39.4V34.6C47.236 33.9635 46.9831 33.353 46.533 32.9029C46.0829 32.4529 45.4725 32.2 44.836 32.2ZM27.436 17.2H31.036V19.6H27.436V17.2ZM12.436 34.6C12.436 34.2817 12.5624 33.9765 12.7874 33.7515C13.0125 33.5264 13.3177 33.4 13.636 33.4H14.836C15.1542 33.4 15.4594 33.5264 15.6845 33.7515C15.9095 33.9765 16.036 34.2817 16.036 34.6V35.836C15.3671 35.944 14.7584 36.2863 14.3187 36.8018C13.879 37.3174 13.637 37.9724 13.636 38.65V38.8H12.436V34.6ZM14.836 38.8V38.65C14.8365 38.2125 15.0105 37.7932 15.3198 37.4839C15.6291 37.1745 16.0485 37.0005 16.486 37H16.786C17.2234 37.0005 17.6428 37.1745 17.9521 37.4839C18.2614 37.7932 18.4354 38.2125 18.436 38.65V38.8H14.836ZM19.636 37.6H23.836V38.8H19.636V37.6ZM25.036 19H26.236V20.2C26.236 20.3591 26.2992 20.5117 26.4117 20.6243C26.5242 20.7368 26.6768 20.8 26.836 20.8H31.636C31.7148 20.8 31.7928 20.7845 31.8656 20.7543C31.9384 20.7242 32.0045 20.68 32.0602 20.6243C32.1159 20.5686 32.1601 20.5024 32.1903 20.4296C32.2204 20.3568 32.236 20.2788 32.236 20.2V19H33.436V38.8H31.636V34.6C31.636 34.4409 31.5727 34.2883 31.4602 34.1757C31.3477 34.0632 31.1951 34 31.036 34H27.436C27.2768 34 27.1242 34.0632 27.0117 34.1757C26.8992 34.2883 26.836 34.4409 26.836 34.6V38.8H25.036V19ZM28.036 38.8V35.2H30.436V38.8H28.036ZM34.636 37.6H38.836V38.8H34.636V37.6ZM40.036 38.8V38.65C40.0365 38.2125 40.2105 37.7932 40.5198 37.4839C40.8291 37.1745 41.2485 37.0005 41.686 37H41.986C42.4234 37.0005 42.8428 37.1745 43.1521 37.4839C43.4614 37.7932 43.6354 38.2125 43.636 38.65V38.8H40.036ZM46.036 38.8H44.836V38.65C44.8349 37.9724 44.5929 37.3174 44.1532 36.8018C43.7135 36.2863 43.1049 35.944 42.436 35.836V34.6C42.436 34.2817 42.5624 33.9765 42.7874 33.7515C43.0125 33.5264 43.3177 33.4 43.636 33.4H44.836C45.1542 33.4 45.4594 33.5264 45.6845 33.7515C45.9095 33.9765 46.036 34.2817 46.036 34.6V38.8Z" fill="white"/>
<path d="M35.8359 30.4H37.6359V31.6H35.8359V30.4Z" fill="white"/>
<path d="M35.8359 33.4H37.6359V34.6H35.8359V33.4Z" fill="white"/>
<path d="M35.8359 24.4H37.6359V25.6H35.8359V24.4Z" fill="white"/>
<path d="M35.8359 27.4H37.6359V28.6H35.8359V27.4Z" fill="white"/>
<defs>
<filter id="filter0_d_2_15" x="-5.76404" y="-12" width="90" height="90" filterUnits="userSpaceOnUse" color-interpolation-filters="sRGB">
<feFlood flood-opacity="0" result="BackgroundImageFix"/>
<feColorMatrix in="SourceAlpha" type="matrix" values="0 0 0 0 0 0 0 0 0 0 0 0 0 0 0 0 0 0 127 0" result="hardAlpha"/>
<feOffset dx="10" dy="4"/>
<feGaussianBlur stdDeviation="8"/>
<feColorMatrix type="matrix" values="0 0 0 0 0 0 0 0 0 0 0 0 0 0 0 0 0 0 0.235 0"/>
<feBlend mode="normal" in2="BackgroundImageFix" result="effect1_dropShadow_2_15"/>
<feBlend mode="normal" in="SourceGraphic" in2="effect1_dropShadow_2_15" result="shape"/>
</filter>
</defs>
</svg>
