<svg width="68" height="68" viewBox="0 0 68 68" fill="none" xmlns="http://www.w3.org/2000/svg">
<path d="M18.688 41.112C18.688 42.04 18.368 42.8133 17.728 43.432C17.0987 44.04 16.1333 44.344 14.832 44.344H12.688V49H11.232V37.848H14.832C16.0907 37.848 17.0453 38.152 17.696 38.76C18.3573 39.368 18.688 40.152 18.688 41.112ZM14.832 43.144C15.6427 43.144 16.24 42.968 16.624 42.616C17.008 42.264 17.2 41.7627 17.2 41.112C17.2 39.736 16.4107 39.048 14.832 39.048H12.688V43.144H14.832ZM21.9536 41.656C22.2096 41.1547 22.5723 40.7653 23.0416 40.488C23.5216 40.2107 24.103 40.072 24.7856 40.072V41.576H24.4016C22.7696 41.576 21.9536 42.4613 21.9536 44.232V49H20.4976V40.232H21.9536V41.656ZM30.2904 49.144C29.469 49.144 28.7224 48.9573 28.0504 48.584C27.389 48.2107 26.8664 47.6827 26.4824 47C26.109 46.3067 25.9224 45.5067 25.9224 44.6C25.9224 43.704 26.1144 42.9147 26.4984 42.232C26.893 41.5387 27.4264 41.0107 28.0984 40.648C28.7704 40.2747 29.5224 40.088 30.3544 40.088C31.1864 40.088 31.9384 40.2747 32.6104 40.648C33.2824 41.0107 33.8104 41.5333 34.1944 42.216C34.589 42.8987 34.7864 43.6933 34.7864 44.6C34.7864 45.5067 34.5837 46.3067 34.1784 47C33.7837 47.6827 33.245 48.2107 32.5624 48.584C31.8797 48.9573 31.1224 49.144 30.2904 49.144ZM30.2904 47.864C30.813 47.864 31.3037 47.7413 31.7624 47.496C32.221 47.2507 32.589 46.8827 32.8664 46.392C33.1544 45.9013 33.2984 45.304 33.2984 44.6C33.2984 43.896 33.1597 43.2987 32.8824 42.808C32.605 42.3173 32.2424 41.9547 31.7944 41.72C31.3464 41.4747 30.861 41.352 30.3384 41.352C29.805 41.352 29.3144 41.4747 28.8664 41.72C28.429 41.9547 28.077 42.3173 27.8104 42.808C27.5437 43.2987 27.4104 43.896 27.4104 44.6C27.4104 45.3147 27.5384 45.9173 27.7944 46.408C28.061 46.8987 28.413 47.2667 28.8504 47.512C29.2877 47.7467 29.7677 47.864 30.2904 47.864ZM40.2688 41.432H38.4288V49H36.9728V41.432H35.8368V40.232H36.9728V39.608C36.9728 38.6267 37.2234 37.912 37.7248 37.464C38.2368 37.0053 39.0528 36.776 40.1727 36.776V37.992C39.5328 37.992 39.0794 38.12 38.8128 38.376C38.5568 38.6213 38.4288 39.032 38.4288 39.608V40.232H40.2688V41.432ZM42.7184 38.808C42.441 38.808 42.2064 38.712 42.0144 38.52C41.8224 38.328 41.7264 38.0933 41.7264 37.816C41.7264 37.5387 41.8224 37.304 42.0144 37.112C42.2064 36.92 42.441 36.824 42.7184 36.824C42.985 36.824 43.209 36.92 43.3904 37.112C43.5824 37.304 43.6784 37.5387 43.6784 37.816C43.6784 38.0933 43.5824 38.328 43.3904 38.52C43.209 38.712 42.985 38.808 42.7184 38.808ZM43.4224 40.232V49H41.9664V40.232H43.4224ZM47.3599 37.16V49H45.9039V37.16H47.3599ZM57.8414 44.28C57.8414 44.5573 57.8254 44.8507 57.7934 45.16H50.7854C50.8387 46.024 51.132 46.7013 51.6654 47.192C52.2094 47.672 52.8654 47.912 53.6334 47.912C54.2627 47.912 54.7854 47.768 55.2014 47.48C55.628 47.1813 55.9267 46.7867 56.0974 46.296H57.6654C57.4307 47.1387 56.9614 47.8267 56.2574 48.36C55.5534 48.8827 54.6787 49.144 53.6334 49.144C52.8014 49.144 52.0547 48.9573 51.3934 48.584C50.7427 48.2107 50.2307 47.6827 49.8574 47C49.484 46.3067 49.2974 45.5067 49.2974 44.6C49.2974 43.6933 49.4787 42.8987 49.8414 42.216C50.204 41.5333 50.7107 41.0107 51.3614 40.648C52.0227 40.2747 52.78 40.088 53.6334 40.088C54.4654 40.088 55.2014 40.2693 55.8414 40.632C56.4814 40.9947 56.972 41.496 57.3134 42.136C57.6654 42.7653 57.8414 43.48 57.8414 44.28ZM56.3374 43.976C56.3374 43.4213 56.2147 42.9467 55.9694 42.552C55.724 42.1467 55.388 41.8427 54.9614 41.64C54.5454 41.4267 54.0814 41.32 53.5694 41.32C52.8334 41.32 52.204 41.5547 51.6814 42.024C51.1694 42.4933 50.876 43.144 50.8014 43.976H56.3374Z" fill="white"/>
<path d="M41 30V28C41.0618 27.0065 40.7287 26.0288 40.0732 25.2796C39.4177 24.5305 38.4929 24.0706 37.5 24H30.5C29.5071 24.0706 28.5822 24.5305 27.9267 25.2796C27.2712 26.0288 26.9381 27.0065 27 28V30" stroke="white" stroke-width="1.5" stroke-linecap="round" stroke-linejoin="round"/>
<path d="M34 22C35.9639 22 37.556 20.2091 37.556 18C37.556 15.7909 35.9639 14 34 14C32.036 14 30.444 15.7909 30.444 18C30.444 20.2091 32.036 22 34 22Z" stroke="white" stroke-width="1.5" stroke-linecap="round" stroke-linejoin="round"/>
</svg>
