<svg width="493" height="417" viewBox="0 0 493 417" fill="none" xmlns="http://www.w3.org/2000/svg">
<g filter="url(#filter0_d_2_2077)">
<path d="M483 6H10C7.79086 6 6 7.79086 6 10V407C6 409.209 7.79086 411 10 411H483C485.209 411 487 409.209 487 407V10C487 7.79086 485.209 6 483 6Z" fill="white"/>
</g>
<path d="M150.72 48.94V53.02H155.52V54.88H150.72V59.14H156.12V61H148.44V47.08H156.12V48.94H150.72ZM163.648 55.42L167.208 61H164.628L162.248 57.26L160.008 61H157.628L161.188 55.58L157.628 49.98H160.208L162.588 53.72L164.828 49.98H167.208L163.648 55.42ZM168.149 55.48C168.149 54.3467 168.375 53.3533 168.829 52.5C169.295 51.6333 169.935 50.9667 170.749 50.5C171.562 50.0333 172.495 49.8 173.549 49.8C174.882 49.8 175.982 50.12 176.849 50.76C177.729 51.3867 178.322 52.2867 178.629 53.46H176.169C175.969 52.9133 175.649 52.4867 175.209 52.18C174.769 51.8733 174.215 51.72 173.549 51.72C172.615 51.72 171.869 52.0533 171.309 52.72C170.762 53.3733 170.489 54.2933 170.489 55.48C170.489 56.6667 170.762 57.5933 171.309 58.26C171.869 58.9267 172.615 59.26 173.549 59.26C174.869 59.26 175.742 58.68 176.169 57.52H178.629C178.309 58.64 177.709 59.5333 176.829 60.2C175.949 60.8533 174.855 61.18 173.549 61.18C172.495 61.18 171.562 60.9467 170.749 60.48C169.935 60 169.295 59.3333 168.829 58.48C168.375 57.6133 168.149 56.6133 168.149 55.48ZM191.001 55.22C191.001 55.6333 190.974 56.0067 190.921 56.34H182.501C182.568 57.22 182.894 57.9267 183.481 58.46C184.068 58.9933 184.788 59.26 185.641 59.26C186.868 59.26 187.734 58.7467 188.241 57.72H190.701C190.368 58.7333 189.761 59.5667 188.881 60.22C188.014 60.86 186.934 61.18 185.641 61.18C184.588 61.18 183.641 60.9467 182.801 60.48C181.974 60 181.321 59.3333 180.841 58.48C180.374 57.6133 180.141 56.6133 180.141 55.48C180.141 54.3467 180.368 53.3533 180.821 52.5C181.288 51.6333 181.934 50.9667 182.761 50.5C183.601 50.0333 184.561 49.8 185.641 49.8C186.681 49.8 187.608 50.0267 188.421 50.48C189.234 50.9333 189.868 51.5733 190.321 52.4C190.774 53.2133 191.001 54.1533 191.001 55.22ZM188.621 54.5C188.608 53.66 188.308 52.9867 187.721 52.48C187.134 51.9733 186.408 51.72 185.541 51.72C184.754 51.72 184.081 51.9733 183.521 52.48C182.961 52.9733 182.628 53.6467 182.521 54.5H188.621ZM195.525 46.2V61H193.245V46.2H195.525ZM200.798 46.2V61H198.518V46.2H200.798ZM213.892 55.22C213.892 55.6333 213.865 56.0067 213.812 56.34H205.392C205.458 57.22 205.785 57.9267 206.372 58.46C206.958 58.9933 207.678 59.26 208.532 59.26C209.758 59.26 210.625 58.7467 211.132 57.72H213.592C213.258 58.7333 212.652 59.5667 211.772 60.22C210.905 60.86 209.825 61.18 208.532 61.18C207.478 61.18 206.532 60.9467 205.692 60.48C204.865 60 204.212 59.3333 203.732 58.48C203.265 57.6133 203.032 56.6133 203.032 55.48C203.032 54.3467 203.258 53.3533 203.712 52.5C204.178 51.6333 204.825 50.9667 205.652 50.5C206.492 50.0333 207.452 49.8 208.532 49.8C209.572 49.8 210.498 50.0267 211.312 50.48C212.125 50.9333 212.758 51.5733 213.212 52.4C213.665 53.2133 213.892 54.1533 213.892 55.22ZM211.512 54.5C211.498 53.66 211.198 52.9867 210.612 52.48C210.025 51.9733 209.298 51.72 208.432 51.72C207.645 51.72 206.972 51.9733 206.412 52.48C205.852 52.9733 205.518 53.6467 205.412 54.5H211.512ZM221.695 49.8C222.562 49.8 223.335 49.98 224.015 50.34C224.709 50.7 225.249 51.2333 225.635 51.94C226.022 52.6467 226.215 53.5 226.215 54.5V61H223.955V54.84C223.955 53.8533 223.709 53.1 223.215 52.58C222.722 52.0467 222.049 51.78 221.195 51.78C220.342 51.78 219.662 52.0467 219.155 52.58C218.662 53.1 218.415 53.8533 218.415 54.84V61H216.135V49.98H218.415V51.24C218.789 50.7867 219.262 50.4333 219.835 50.18C220.422 49.9267 221.042 49.8 221.695 49.8ZM231.784 51.84V57.94C231.784 58.3533 231.877 58.6533 232.064 58.84C232.264 59.0133 232.597 59.1 233.064 59.1H234.464V61H232.664C231.637 61 230.85 60.76 230.304 60.28C229.757 59.8 229.484 59.02 229.484 57.94V51.84H228.184V49.98H229.484V47.24H231.784V49.98H234.464V51.84H231.784Z" fill="#221F3C"/>
<path d="M154.792 78.184C154.557 77 153.827 76.408 152.6 76.408C151.651 76.408 150.941 76.776 150.472 77.512C150.003 78.2373 149.773 79.4373 149.784 81.112C150.029 80.5573 150.435 80.1253 151 79.816C151.576 79.496 152.216 79.336 152.92 79.336C154.019 79.336 154.893 79.6773 155.544 80.36C156.205 81.0427 156.536 81.9867 156.536 83.192C156.536 83.9173 156.392 84.568 156.104 85.144C155.827 85.72 155.4 86.1787 154.824 86.52C154.259 86.8613 153.571 87.032 152.76 87.032C151.661 87.032 150.803 86.7867 150.184 86.296C149.565 85.8053 149.133 85.128 148.888 84.264C148.643 83.4 148.52 82.3333 148.52 81.064C148.52 77.1493 149.885 75.192 152.616 75.192C153.661 75.192 154.483 75.4747 155.08 76.04C155.677 76.6053 156.029 77.32 156.136 78.184H154.792ZM152.616 80.568C152.157 80.568 151.725 80.664 151.32 80.856C150.915 81.0373 150.584 81.32 150.328 81.704C150.083 82.0773 149.96 82.536 149.96 83.08C149.96 83.8907 150.195 84.552 150.664 85.064C151.133 85.5653 151.805 85.816 152.68 85.816C153.427 85.816 154.019 85.5867 154.456 85.128C154.904 84.6587 155.128 84.0293 155.128 83.24C155.128 82.408 154.915 81.7573 154.488 81.288C154.061 80.808 153.437 80.568 152.616 80.568ZM160.612 80.984C160.015 80.7493 159.556 80.408 159.236 79.96C158.916 79.512 158.756 78.968 158.756 78.328C158.756 77.752 158.9 77.2347 159.188 76.776C159.476 76.3067 159.903 75.9387 160.468 75.672C161.044 75.3947 161.738 75.256 162.548 75.256C163.359 75.256 164.047 75.3947 164.612 75.672C165.188 75.9387 165.62 76.3067 165.908 76.776C166.207 77.2347 166.356 77.752 166.356 78.328C166.356 78.9467 166.191 79.4907 165.86 79.96C165.53 80.4187 165.076 80.76 164.5 80.984C165.162 81.1867 165.684 81.544 166.068 82.056C166.463 82.5573 166.66 83.1653 166.66 83.88C166.66 84.5733 166.49 85.1813 166.148 85.704C165.807 86.216 165.322 86.616 164.692 86.904C164.074 87.1813 163.359 87.32 162.548 87.32C161.738 87.32 161.023 87.1813 160.404 86.904C159.796 86.616 159.322 86.216 158.98 85.704C158.639 85.1813 158.468 84.5733 158.468 83.88C158.468 83.1653 158.66 82.552 159.044 82.04C159.428 81.528 159.951 81.176 160.612 80.984ZM164.948 78.504C164.948 77.8533 164.735 77.352 164.308 77C163.882 76.648 163.295 76.472 162.548 76.472C161.812 76.472 161.231 76.648 160.804 77C160.378 77.352 160.164 77.8587 160.164 78.52C160.164 79.1173 160.383 79.5973 160.82 79.96C161.268 80.3227 161.844 80.504 162.548 80.504C163.263 80.504 163.839 80.3227 164.276 79.96C164.724 79.5867 164.948 79.1013 164.948 78.504ZM162.548 81.624C161.759 81.624 161.114 81.8107 160.612 82.184C160.111 82.5467 159.86 83.096 159.86 83.832C159.86 84.5147 160.1 85.064 160.58 85.48C161.071 85.896 161.727 86.104 162.548 86.104C163.37 86.104 164.02 85.896 164.5 85.48C164.98 85.064 165.22 84.5147 165.22 83.832C165.22 83.1173 164.975 82.5733 164.484 82.2C163.994 81.816 163.348 81.624 162.548 81.624ZM175.714 76.568L171.266 87H169.794L174.306 76.712H168.13V75.464H175.714V76.568ZM179.2 83.896C179.307 84.504 179.552 84.9733 179.936 85.304C180.331 85.6347 180.859 85.8 181.52 85.8C182.406 85.8 183.056 85.4533 183.472 84.76C183.899 84.0667 184.102 82.8987 184.08 81.256C183.856 81.736 183.483 82.1147 182.96 82.392C182.438 82.6587 181.856 82.792 181.216 82.792C180.502 82.792 179.862 82.648 179.296 82.36C178.742 82.0613 178.304 81.6293 177.984 81.064C177.664 80.4987 177.504 79.816 177.504 79.016C177.504 77.8747 177.835 76.9573 178.496 76.264C179.158 75.56 180.096 75.208 181.312 75.208C182.806 75.208 183.851 75.6933 184.448 76.664C185.056 77.6347 185.36 79.08 185.36 81C185.36 82.344 185.238 83.4533 184.992 84.328C184.758 85.2027 184.352 85.8693 183.776 86.328C183.211 86.7867 182.432 87.016 181.44 87.016C180.352 87.016 179.504 86.7227 178.896 86.136C178.288 85.5493 177.942 84.8027 177.856 83.896H179.2ZM181.456 81.56C182.171 81.56 182.758 81.3413 183.216 80.904C183.675 80.456 183.904 79.8533 183.904 79.096C183.904 78.296 183.68 77.6507 183.232 77.16C182.784 76.6693 182.155 76.424 181.344 76.424C180.598 76.424 180 76.6587 179.552 77.128C179.115 77.5973 178.896 78.216 178.896 78.984C178.896 79.7627 179.115 80.3867 179.552 80.856C179.99 81.3253 180.624 81.56 181.456 81.56ZM197.784 87L195.128 82.44H193.368V87H191.912V75.848H195.512C196.355 75.848 197.064 75.992 197.64 76.28C198.227 76.568 198.664 76.9573 198.952 77.448C199.24 77.9387 199.384 78.4987 199.384 79.128C199.384 79.896 199.16 80.5733 198.712 81.16C198.275 81.7467 197.614 82.136 196.728 82.328L199.528 87H197.784ZM193.368 81.272H195.512C196.302 81.272 196.894 81.08 197.288 80.696C197.683 80.3013 197.88 79.7787 197.88 79.128C197.88 78.4667 197.683 77.9547 197.288 77.592C196.904 77.2293 196.312 77.048 195.512 77.048H193.368V81.272ZM209.647 82.28C209.647 82.5573 209.631 82.8507 209.599 83.16H202.591C202.644 84.024 202.937 84.7013 203.471 85.192C204.015 85.672 204.671 85.912 205.439 85.912C206.068 85.912 206.591 85.768 207.007 85.48C207.433 85.1813 207.732 84.7867 207.903 84.296H209.471C209.236 85.1387 208.767 85.8267 208.063 86.36C207.359 86.8827 206.484 87.144 205.439 87.144C204.607 87.144 203.86 86.9573 203.199 86.584C202.548 86.2107 202.036 85.6827 201.663 85C201.289 84.3067 201.103 83.5067 201.103 82.6C201.103 81.6933 201.284 80.8987 201.647 80.216C202.009 79.5333 202.516 79.0107 203.167 78.648C203.828 78.2747 204.585 78.088 205.439 78.088C206.271 78.088 207.007 78.2693 207.647 78.632C208.287 78.9947 208.777 79.496 209.119 80.136C209.471 80.7653 209.647 81.48 209.647 82.28ZM208.143 81.976C208.143 81.4213 208.02 80.9467 207.775 80.552C207.529 80.1467 207.193 79.8427 206.767 79.64C206.351 79.4267 205.887 79.32 205.375 79.32C204.639 79.32 204.009 79.5547 203.487 80.024C202.975 80.4933 202.681 81.144 202.607 81.976H208.143ZM214.832 85.656L217.552 78.232H219.104L215.664 87H213.968L210.528 78.232H212.096L214.832 85.656ZM221.289 76.808C221.012 76.808 220.777 76.712 220.585 76.52C220.393 76.328 220.297 76.0933 220.297 75.816C220.297 75.5387 220.393 75.304 220.585 75.112C220.777 74.92 221.012 74.824 221.289 74.824C221.556 74.824 221.78 74.92 221.961 75.112C222.153 75.304 222.249 75.5387 222.249 75.816C222.249 76.0933 222.153 76.328 221.961 76.52C221.78 76.712 221.556 76.808 221.289 76.808ZM221.993 78.232V87H220.537V78.232H221.993ZM232.475 82.28C232.475 82.5573 232.459 82.8507 232.427 83.16H225.419C225.472 84.024 225.765 84.7013 226.299 85.192C226.843 85.672 227.499 85.912 228.267 85.912C228.896 85.912 229.419 85.768 229.835 85.48C230.261 85.1813 230.56 84.7867 230.731 84.296H232.299C232.064 85.1387 231.595 85.8267 230.891 86.36C230.187 86.8827 229.312 87.144 228.267 87.144C227.435 87.144 226.688 86.9573 226.027 86.584C225.376 86.2107 224.864 85.6827 224.491 85C224.117 84.3067 223.931 83.5067 223.931 82.6C223.931 81.6933 224.112 80.8987 224.475 80.216C224.837 79.5333 225.344 79.0107 225.995 78.648C226.656 78.2747 227.413 78.088 228.267 78.088C229.099 78.088 229.835 78.2693 230.475 78.632C231.115 78.9947 231.605 79.496 231.947 80.136C232.299 80.7653 232.475 81.48 232.475 82.28ZM230.971 81.976C230.971 81.4213 230.848 80.9467 230.603 80.552C230.357 80.1467 230.021 79.8427 229.595 79.64C229.179 79.4267 228.715 79.32 228.203 79.32C227.467 79.32 226.837 79.5547 226.315 80.024C225.803 80.4933 225.509 81.144 225.435 81.976H230.971ZM246.077 78.232L243.341 87H241.837L239.725 80.04L237.613 87H236.109L233.357 78.232H234.845L236.861 85.592L239.037 78.232H240.525L242.653 85.608L244.637 78.232H246.077ZM250.626 87.144C249.954 87.144 249.351 87.032 248.818 86.808C248.284 86.5733 247.863 86.2533 247.554 85.848C247.244 85.432 247.074 84.9573 247.042 84.424H248.546C248.588 84.8613 248.791 85.2187 249.154 85.496C249.527 85.7733 250.012 85.912 250.61 85.912C251.164 85.912 251.602 85.7893 251.922 85.544C252.242 85.2987 252.402 84.9893 252.402 84.616C252.402 84.232 252.231 83.9493 251.89 83.768C251.548 83.576 251.02 83.3893 250.306 83.208C249.655 83.0373 249.122 82.8667 248.706 82.696C248.3 82.5147 247.948 82.2533 247.65 81.912C247.362 81.56 247.218 81.1013 247.218 80.536C247.218 80.088 247.351 79.6773 247.618 79.304C247.884 78.9307 248.263 78.6373 248.754 78.424C249.244 78.2 249.804 78.088 250.434 78.088C251.404 78.088 252.188 78.3333 252.786 78.824C253.383 79.3147 253.703 79.9867 253.746 80.84H252.29C252.258 80.3813 252.071 80.0133 251.73 79.736C251.399 79.4587 250.951 79.32 250.386 79.32C249.863 79.32 249.447 79.432 249.138 79.656C248.828 79.88 248.674 80.1733 248.674 80.536C248.674 80.824 248.764 81.064 248.946 81.256C249.138 81.4373 249.372 81.5867 249.65 81.704C249.938 81.8107 250.332 81.9333 250.834 82.072C251.463 82.2427 251.975 82.4133 252.37 82.584C252.764 82.744 253.1 82.9893 253.378 83.32C253.666 83.6507 253.815 84.0827 253.826 84.616C253.826 85.096 253.692 85.528 253.426 85.912C253.159 86.296 252.78 86.6 252.29 86.824C251.81 87.0373 251.255 87.144 250.626 87.144Z" fill="#B7BCF3"/>
<path d="M65 38H123.039C131.323 38 115 44.716 115 53V82C115 85.9782 113.42 89.7936 110.607 92.6066C107.794 95.4196 103.978 97 100 97H65C61.0218 97 57.2064 95.4196 54.3934 92.6066C51.5804 89.7936 50 85.9782 50 82V53C50 49.0218 51.5804 45.2064 54.3934 42.3934C57.2064 39.5804 61.0218 38 65 38Z" fill="#2D3DDF"/>
<path d="M65.724 69.024C63.9693 68.0907 63.092 66.6253 63.092 64.628C63.092 63.62 63.3533 62.7053 63.876 61.884C64.3987 61.044 65.192 60.3813 66.256 59.896C67.32 59.392 68.6267 59.14 70.176 59.14C71.7253 59.14 73.0227 59.392 74.068 59.896C75.132 60.3813 75.9253 61.044 76.448 61.884C76.9707 62.7053 77.232 63.62 77.232 64.628C77.232 65.636 76.9893 66.5133 76.504 67.26C76.0373 68.0067 75.4027 68.5947 74.6 69.024C75.608 69.5093 76.3827 70.1813 76.924 71.04C77.4653 71.88 77.736 72.8693 77.736 74.008C77.736 75.3333 77.4 76.4813 76.728 77.452C76.056 78.404 75.1413 79.132 73.984 79.636C72.8453 80.14 71.576 80.392 70.176 80.392C68.776 80.392 67.4973 80.14 66.34 79.636C65.2013 79.132 64.296 78.404 63.624 77.452C62.952 76.4813 62.616 75.3333 62.616 74.008C62.616 72.8507 62.8867 71.852 63.428 71.012C63.9693 70.1533 64.7347 69.4907 65.724 69.024ZM72.584 65.356C72.584 64.5907 72.36 64.0027 71.912 63.592C71.4827 63.1627 70.904 62.948 70.176 62.948C69.448 62.948 68.86 63.1627 68.412 63.592C67.9827 64.0213 67.768 64.6187 67.768 65.384C67.768 66.112 67.992 66.6907 68.44 67.12C68.888 67.5307 69.4667 67.736 70.176 67.736C70.8853 67.736 71.464 67.5213 71.912 67.092C72.36 66.6627 72.584 66.084 72.584 65.356ZM70.176 71.096C69.2987 71.096 68.5893 71.3387 68.048 71.824C67.5067 72.2907 67.236 72.944 67.236 73.784C67.236 74.568 67.4973 75.212 68.02 75.716C68.5613 76.22 69.28 76.472 70.176 76.472C71.072 76.472 71.772 76.22 72.276 75.716C72.7987 75.212 73.06 74.568 73.06 73.784C73.06 72.9627 72.7893 72.3093 72.248 71.824C71.7253 71.3387 71.0347 71.096 70.176 71.096ZM83.2363 80.224C82.3963 80.224 81.7056 79.9813 81.1643 79.496C80.6416 78.992 80.3803 78.376 80.3803 77.648C80.3803 76.9013 80.6416 76.276 81.1643 75.772C81.7056 75.268 82.3963 75.016 83.2363 75.016C84.0576 75.016 84.7296 75.268 85.2523 75.772C85.7936 76.276 86.0643 76.9013 86.0643 77.648C86.0643 78.376 85.7936 78.992 85.2523 79.496C84.7296 79.9813 84.0576 80.224 83.2363 80.224ZM88.5346 76.36V72.496L97.3826 59.84H102.731V72.216H105.027V76.36H102.731V80H97.9426V76.36H88.5346ZM98.2786 65.104L93.5746 72.216H98.2786V65.104Z" fill="white"/>
<path d="M60.969 136.848V148H59.513V142.944H53.833V148H52.377V136.848H53.833V141.744H59.513V136.848H60.969ZM67.2791 148.144C66.4578 148.144 65.7111 147.957 65.0391 147.584C64.3778 147.211 63.8551 146.683 63.4711 146C63.0978 145.307 62.9111 144.507 62.9111 143.6C62.9111 142.704 63.1031 141.915 63.4871 141.232C63.8818 140.539 64.4151 140.011 65.0871 139.648C65.7591 139.275 66.5111 139.088 67.3431 139.088C68.1751 139.088 68.9271 139.275 69.5991 139.648C70.2711 140.011 70.7991 140.533 71.1831 141.216C71.5778 141.899 71.7751 142.693 71.7751 143.6C71.7751 144.507 71.5725 145.307 71.1671 146C70.7725 146.683 70.2338 147.211 69.5511 147.584C68.8685 147.957 68.1111 148.144 67.2791 148.144ZM67.2791 146.864C67.8018 146.864 68.2925 146.741 68.7511 146.496C69.2098 146.251 69.5778 145.883 69.8551 145.392C70.1431 144.901 70.2871 144.304 70.2871 143.6C70.2871 142.896 70.1485 142.299 69.8711 141.808C69.5938 141.317 69.2311 140.955 68.7831 140.72C68.3351 140.475 67.8498 140.352 67.3271 140.352C66.7938 140.352 66.3031 140.475 65.8551 140.72C65.4178 140.955 65.0658 141.317 64.7991 141.808C64.5325 142.299 64.3991 142.896 64.3991 143.6C64.3991 144.315 64.5271 144.917 64.7831 145.408C65.0498 145.899 65.4018 146.267 65.8391 146.512C66.2765 146.747 66.7565 146.864 67.2791 146.864ZM81.4655 139.232V148H80.0095V146.704C79.7322 147.152 79.3429 147.504 78.8415 147.76C78.3509 148.005 77.8069 148.128 77.2095 148.128C76.5269 148.128 75.9135 147.989 75.3695 147.712C74.8255 147.424 74.3935 146.997 74.0735 146.432C73.7642 145.867 73.6095 145.179 73.6095 144.368V139.232H75.0495V144.176C75.0495 145.04 75.2682 145.707 75.7055 146.176C76.1429 146.635 76.7402 146.864 77.4975 146.864C78.2762 146.864 78.8895 146.624 79.3375 146.144C79.7855 145.664 80.0095 144.965 80.0095 144.048V139.232H81.4655ZM87.0279 148.144C86.3559 148.144 85.7532 148.032 85.2199 147.808C84.6866 147.573 84.2652 147.253 83.9559 146.848C83.6466 146.432 83.4759 145.957 83.4439 145.424H84.9479C84.9906 145.861 85.1932 146.219 85.5559 146.496C85.9292 146.773 86.4146 146.912 87.0119 146.912C87.5666 146.912 88.0039 146.789 88.3239 146.544C88.6439 146.299 88.8039 145.989 88.8039 145.616C88.8039 145.232 88.6332 144.949 88.2919 144.768C87.9506 144.576 87.4226 144.389 86.7079 144.208C86.0572 144.037 85.5239 143.867 85.1079 143.696C84.7026 143.515 84.3506 143.253 84.0519 142.912C83.7639 142.56 83.6199 142.101 83.6199 141.536C83.6199 141.088 83.7532 140.677 84.0199 140.304C84.2866 139.931 84.6652 139.637 85.1559 139.424C85.6466 139.2 86.2066 139.088 86.8359 139.088C87.8066 139.088 88.5906 139.333 89.1879 139.824C89.7852 140.315 90.1052 140.987 90.1479 141.84H88.6919C88.6599 141.381 88.4732 141.013 88.1319 140.736C87.8012 140.459 87.3532 140.32 86.7879 140.32C86.2652 140.32 85.8492 140.432 85.5399 140.656C85.2306 140.88 85.0759 141.173 85.0759 141.536C85.0759 141.824 85.1666 142.064 85.3479 142.256C85.5399 142.437 85.7746 142.587 86.0519 142.704C86.3399 142.811 86.7346 142.933 87.2359 143.072C87.8652 143.243 88.3772 143.413 88.7719 143.584C89.1666 143.744 89.5026 143.989 89.7799 144.32C90.0679 144.651 90.2172 145.083 90.2279 145.616C90.2279 146.096 90.0946 146.528 89.8279 146.912C89.5612 147.296 89.1826 147.6 88.6919 147.824C88.2119 148.037 87.6572 148.144 87.0279 148.144ZM100.283 143.28C100.283 143.557 100.267 143.851 100.235 144.16H93.2273C93.2806 145.024 93.5739 145.701 94.1073 146.192C94.6513 146.672 95.3073 146.912 96.0753 146.912C96.7046 146.912 97.2273 146.768 97.6433 146.48C98.0699 146.181 98.3686 145.787 98.5393 145.296H100.107C99.8726 146.139 99.4033 146.827 98.6993 147.36C97.9953 147.883 97.1206 148.144 96.0753 148.144C95.2433 148.144 94.4966 147.957 93.8353 147.584C93.1846 147.211 92.6726 146.683 92.2993 146C91.9259 145.307 91.7393 144.507 91.7393 143.6C91.7393 142.693 91.9206 141.899 92.2833 141.216C92.6459 140.533 93.1526 140.011 93.8033 139.648C94.4646 139.275 95.2219 139.088 96.0753 139.088C96.9073 139.088 97.6433 139.269 98.2833 139.632C98.9233 139.995 99.4139 140.496 99.7553 141.136C100.107 141.765 100.283 142.48 100.283 143.28ZM98.7793 142.976C98.7793 142.421 98.6566 141.947 98.4113 141.552C98.1659 141.147 97.8299 140.843 97.4033 140.64C96.9873 140.427 96.5233 140.32 96.0113 140.32C95.2753 140.32 94.6459 140.555 94.1233 141.024C93.6113 141.493 93.3179 142.144 93.2433 142.976H98.7793ZM107.101 148L103.661 144.128V148H102.205V136.16H103.661V143.12L107.037 139.232H109.069L104.941 143.6L109.085 148H107.101ZM118.44 143.28C118.44 143.557 118.424 143.851 118.392 144.16H111.384C111.437 145.024 111.73 145.701 112.264 146.192C112.808 146.672 113.464 146.912 114.232 146.912C114.861 146.912 115.384 146.768 115.8 146.48C116.226 146.181 116.525 145.787 116.696 145.296H118.264C118.029 146.139 117.56 146.827 116.856 147.36C116.152 147.883 115.277 148.144 114.232 148.144C113.4 148.144 112.653 147.957 111.992 147.584C111.341 147.211 110.829 146.683 110.456 146C110.082 145.307 109.896 144.507 109.896 143.6C109.896 142.693 110.077 141.899 110.44 141.216C110.802 140.533 111.309 140.011 111.96 139.648C112.621 139.275 113.378 139.088 114.232 139.088C115.064 139.088 115.8 139.269 116.44 139.632C117.08 139.995 117.57 140.496 117.912 141.136C118.264 141.765 118.44 142.48 118.44 143.28ZM116.936 142.976C116.936 142.421 116.813 141.947 116.568 141.552C116.322 141.147 115.986 140.843 115.56 140.64C115.144 140.427 114.68 140.32 114.168 140.32C113.432 140.32 112.802 140.555 112.28 141.024C111.768 141.493 111.474 142.144 111.4 142.976H116.936ZM128.361 143.28C128.361 143.557 128.345 143.851 128.313 144.16H121.305C121.359 145.024 121.652 145.701 122.185 146.192C122.729 146.672 123.385 146.912 124.153 146.912C124.783 146.912 125.305 146.768 125.721 146.48C126.148 146.181 126.447 145.787 126.617 145.296H128.185C127.951 146.139 127.481 146.827 126.777 147.36C126.073 147.883 125.199 148.144 124.153 148.144C123.321 148.144 122.575 147.957 121.913 147.584C121.263 147.211 120.751 146.683 120.377 146C120.004 145.307 119.817 144.507 119.817 143.6C119.817 142.693 119.999 141.899 120.361 141.216C120.724 140.533 121.231 140.011 121.881 139.648C122.543 139.275 123.3 139.088 124.153 139.088C124.985 139.088 125.721 139.269 126.361 139.632C127.001 139.995 127.492 140.496 127.833 141.136C128.185 141.765 128.361 142.48 128.361 143.28ZM126.857 142.976C126.857 142.421 126.735 141.947 126.489 141.552C126.244 141.147 125.908 140.843 125.481 140.64C125.065 140.427 124.601 140.32 124.089 140.32C123.353 140.32 122.724 140.555 122.201 141.024C121.689 141.493 121.396 142.144 121.321 142.976H126.857ZM131.739 140.848C132.027 140.347 132.454 139.931 133.019 139.6C133.595 139.259 134.262 139.088 135.019 139.088C135.798 139.088 136.502 139.275 137.131 139.648C137.771 140.021 138.273 140.549 138.635 141.232C138.998 141.904 139.179 142.688 139.179 143.584C139.179 144.469 138.998 145.259 138.635 145.952C138.273 146.645 137.771 147.184 137.131 147.568C136.502 147.952 135.798 148.144 135.019 148.144C134.273 148.144 133.611 147.979 133.035 147.648C132.47 147.307 132.038 146.885 131.739 146.384V152.16H130.283V139.232H131.739V140.848ZM137.691 143.584C137.691 142.923 137.558 142.347 137.291 141.856C137.025 141.365 136.662 140.992 136.203 140.736C135.755 140.48 135.259 140.352 134.715 140.352C134.182 140.352 133.686 140.485 133.227 140.752C132.779 141.008 132.417 141.387 132.139 141.888C131.873 142.379 131.739 142.949 131.739 143.6C131.739 144.261 131.873 144.843 132.139 145.344C132.417 145.835 132.779 146.213 133.227 146.48C133.686 146.736 134.182 146.864 134.715 146.864C135.259 146.864 135.755 146.736 136.203 146.48C136.662 146.213 137.025 145.835 137.291 145.344C137.558 144.843 137.691 144.256 137.691 143.584ZM141.848 137.808C141.57 137.808 141.336 137.712 141.144 137.52C140.952 137.328 140.856 137.093 140.856 136.816C140.856 136.539 140.952 136.304 141.144 136.112C141.336 135.92 141.57 135.824 141.848 135.824C142.114 135.824 142.338 135.92 142.52 136.112C142.712 136.304 142.808 136.539 142.808 136.816C142.808 137.093 142.712 137.328 142.52 137.52C142.338 137.712 142.114 137.808 141.848 137.808ZM142.552 139.232V148H141.096V139.232H142.552ZM149.305 139.072C150.372 139.072 151.236 139.397 151.897 140.048C152.559 140.688 152.889 141.616 152.889 142.832V148H151.449V143.04C151.449 142.165 151.231 141.499 150.793 141.04C150.356 140.571 149.759 140.336 149.001 140.336C148.233 140.336 147.62 140.576 147.161 141.056C146.713 141.536 146.489 142.235 146.489 143.152V148H145.033V139.232H146.489V140.48C146.777 140.032 147.167 139.685 147.657 139.44C148.159 139.195 148.708 139.072 149.305 139.072ZM158.884 139.088C159.641 139.088 160.302 139.253 160.868 139.584C161.444 139.915 161.87 140.331 162.148 140.832V139.232H163.62V148.192C163.62 148.992 163.449 149.701 163.108 150.32C162.766 150.949 162.276 151.44 161.636 151.792C161.006 152.144 160.27 152.32 159.428 152.32C158.276 152.32 157.316 152.048 156.548 151.504C155.78 150.96 155.326 150.219 155.188 149.28H156.628C156.788 149.813 157.118 150.24 157.62 150.56C158.121 150.891 158.724 151.056 159.428 151.056C160.228 151.056 160.878 150.805 161.38 150.304C161.892 149.803 162.148 149.099 162.148 148.192V146.352C161.86 146.864 161.433 147.291 160.868 147.632C160.302 147.973 159.641 148.144 158.884 148.144C158.105 148.144 157.396 147.952 156.756 147.568C156.126 147.184 155.63 146.645 155.268 145.952C154.905 145.259 154.724 144.469 154.724 143.584C154.724 142.688 154.905 141.904 155.268 141.232C155.63 140.549 156.126 140.021 156.756 139.648C157.396 139.275 158.105 139.088 158.884 139.088ZM162.148 143.6C162.148 142.939 162.014 142.363 161.748 141.872C161.481 141.381 161.118 141.008 160.66 140.752C160.212 140.485 159.716 140.352 159.172 140.352C158.628 140.352 158.132 140.48 157.684 140.736C157.236 140.992 156.878 141.365 156.612 141.856C156.345 142.347 156.212 142.923 156.212 143.584C156.212 144.256 156.345 144.843 156.612 145.344C156.878 145.835 157.236 146.213 157.684 146.48C158.132 146.736 158.628 146.864 159.172 146.864C159.716 146.864 160.212 146.736 160.66 146.48C161.118 146.213 161.481 145.835 161.748 145.344C162.014 144.843 162.148 144.261 162.148 143.6Z" fill="#221F3C"/>
<path d="M58.8573 169.848V171.032H54.0093V174.792H57.9453V175.976H54.0093V181H52.5533V169.848H58.8573ZM64.4398 181.144C63.6185 181.144 62.8718 180.957 62.1998 180.584C61.5385 180.211 61.0158 179.683 60.6318 179C60.2585 178.307 60.0718 177.507 60.0718 176.6C60.0718 175.704 60.2638 174.915 60.6478 174.232C61.0425 173.539 61.5758 173.011 62.2478 172.648C62.9198 172.275 63.6718 172.088 64.5038 172.088C65.3358 172.088 66.0878 172.275 66.7598 172.648C67.4318 173.011 67.9598 173.533 68.3438 174.216C68.7385 174.899 68.9358 175.693 68.9358 176.6C68.9358 177.507 68.7331 178.307 68.3278 179C67.9331 179.683 67.3945 180.211 66.7118 180.584C66.0291 180.957 65.2718 181.144 64.4398 181.144ZM64.4398 179.864C64.9625 179.864 65.4531 179.741 65.9118 179.496C66.3705 179.251 66.7385 178.883 67.0158 178.392C67.3038 177.901 67.4478 177.304 67.4478 176.6C67.4478 175.896 67.3091 175.299 67.0318 174.808C66.7545 174.317 66.3918 173.955 65.9438 173.72C65.4958 173.475 65.0105 173.352 64.4878 173.352C63.9545 173.352 63.4638 173.475 63.0158 173.72C62.5785 173.955 62.2265 174.317 61.9598 174.808C61.6931 175.299 61.5598 175.896 61.5598 176.6C61.5598 177.315 61.6878 177.917 61.9438 178.408C62.2105 178.899 62.5625 179.267 62.9998 179.512C63.4371 179.747 63.9171 179.864 64.4398 179.864ZM74.6742 181.144C73.8528 181.144 73.1062 180.957 72.4342 180.584C71.7728 180.211 71.2502 179.683 70.8662 179C70.4928 178.307 70.3062 177.507 70.3062 176.6C70.3062 175.704 70.4982 174.915 70.8822 174.232C71.2768 173.539 71.8102 173.011 72.4822 172.648C73.1542 172.275 73.9062 172.088 74.7382 172.088C75.5702 172.088 76.3222 172.275 76.9942 172.648C77.6662 173.011 78.1942 173.533 78.5782 174.216C78.9728 174.899 79.1702 175.693 79.1702 176.6C79.1702 177.507 78.9675 178.307 78.5622 179C78.1675 179.683 77.6288 180.211 76.9462 180.584C76.2635 180.957 75.5062 181.144 74.6742 181.144ZM74.6742 179.864C75.1968 179.864 75.6875 179.741 76.1462 179.496C76.6048 179.251 76.9728 178.883 77.2502 178.392C77.5382 177.901 77.6822 177.304 77.6822 176.6C77.6822 175.896 77.5435 175.299 77.2662 174.808C76.9888 174.317 76.6262 173.955 76.1782 173.72C75.7302 173.475 75.2448 173.352 74.7222 173.352C74.1888 173.352 73.6982 173.475 73.2502 173.72C72.8128 173.955 72.4608 174.317 72.1942 174.808C71.9275 175.299 71.7942 175.896 71.7942 176.6C71.7942 177.315 71.9222 177.917 72.1782 178.408C72.4448 178.899 72.7968 179.267 73.2342 179.512C73.6715 179.747 74.1515 179.864 74.6742 179.864ZM80.5405 176.584C80.5405 175.688 80.7219 174.904 81.0845 174.232C81.4472 173.549 81.9432 173.021 82.5725 172.648C83.2125 172.275 83.9272 172.088 84.7165 172.088C85.3992 172.088 86.0339 172.248 86.6205 172.568C87.2072 172.877 87.6552 173.288 87.9645 173.8V169.16H89.4365V181H87.9645V179.352C87.6765 179.875 87.2499 180.307 86.6845 180.648C86.1192 180.979 85.4579 181.144 84.7005 181.144C83.9219 181.144 83.2125 180.952 82.5725 180.568C81.9432 180.184 81.4472 179.645 81.0845 178.952C80.7219 178.259 80.5405 177.469 80.5405 176.584ZM87.9645 176.6C87.9645 175.939 87.8312 175.363 87.5645 174.872C87.2979 174.381 86.9352 174.008 86.4765 173.752C86.0285 173.485 85.5325 173.352 84.9885 173.352C84.4445 173.352 83.9485 173.48 83.5005 173.736C83.0525 173.992 82.6952 174.365 82.4285 174.856C82.1619 175.347 82.0285 175.923 82.0285 176.584C82.0285 177.256 82.1619 177.843 82.4285 178.344C82.6952 178.835 83.0525 179.213 83.5005 179.48C83.9485 179.736 84.4445 179.864 84.9885 179.864C85.5325 179.864 86.0285 179.736 86.4765 179.48C86.9352 179.213 87.2979 178.835 87.5645 178.344C87.8312 177.843 87.9645 177.261 87.9645 176.6Z" fill="#221F3C"/>
<path d="M55.8569 214.112C55.1209 214.112 54.4595 213.984 53.8729 213.728C53.2969 213.461 52.8435 213.099 52.5129 212.64C52.1822 212.171 52.0115 211.632 52.0009 211.024H53.5529C53.6062 211.547 53.8195 211.989 54.1929 212.352C54.5769 212.704 55.1315 212.88 55.8569 212.88C56.5502 212.88 57.0942 212.709 57.4889 212.368C57.8942 212.016 58.0969 211.568 58.0969 211.024C58.0969 210.597 57.9795 210.251 57.7449 209.984C57.5102 209.717 57.2169 209.515 56.8649 209.376C56.5129 209.237 56.0382 209.088 55.4409 208.928C54.7049 208.736 54.1129 208.544 53.6649 208.352C53.2275 208.16 52.8489 207.861 52.5289 207.456C52.2195 207.04 52.0649 206.485 52.0649 205.792C52.0649 205.184 52.2195 204.645 52.5289 204.176C52.8382 203.707 53.2702 203.344 53.8249 203.088C54.3902 202.832 55.0355 202.704 55.7609 202.704C56.8062 202.704 57.6595 202.965 58.3209 203.488C58.9929 204.011 59.3715 204.704 59.4569 205.568H57.8569C57.8035 205.141 57.5795 204.768 57.1849 204.448C56.7902 204.117 56.2675 203.952 55.6169 203.952C55.0089 203.952 54.5129 204.112 54.1289 204.432C53.7449 204.741 53.5529 205.179 53.5529 205.744C53.5529 206.149 53.6649 206.48 53.8889 206.736C54.1235 206.992 54.4062 207.189 54.7369 207.328C55.0782 207.456 55.5529 207.605 56.1609 207.776C56.8969 207.979 57.4889 208.181 57.9369 208.384C58.3849 208.576 58.7689 208.88 59.0889 209.296C59.4089 209.701 59.5689 210.256 59.5689 210.96C59.5689 211.504 59.4249 212.016 59.1369 212.496C58.8489 212.976 58.4222 213.365 57.8569 213.664C57.2915 213.963 56.6249 214.112 55.8569 214.112ZM69.7115 209.28C69.7115 209.557 69.6955 209.851 69.6635 210.16H62.6555C62.7088 211.024 63.0022 211.701 63.5355 212.192C64.0795 212.672 64.7355 212.912 65.5035 212.912C66.1328 212.912 66.6555 212.768 67.0715 212.48C67.4982 212.181 67.7968 211.787 67.9675 211.296H69.5355C69.3008 212.139 68.8315 212.827 68.1275 213.36C67.4235 213.883 66.5488 214.144 65.5035 214.144C64.6715 214.144 63.9248 213.957 63.2635 213.584C62.6128 213.211 62.1008 212.683 61.7275 212C61.3542 211.307 61.1675 210.507 61.1675 209.6C61.1675 208.693 61.3488 207.899 61.7115 207.216C62.0742 206.533 62.5808 206.011 63.2315 205.648C63.8928 205.275 64.6502 205.088 65.5035 205.088C66.3355 205.088 67.0715 205.269 67.7115 205.632C68.3515 205.995 68.8422 206.496 69.1835 207.136C69.5355 207.765 69.7115 208.48 69.7115 209.28ZM68.2075 208.976C68.2075 208.421 68.0848 207.947 67.8395 207.552C67.5942 207.147 67.2582 206.843 66.8315 206.64C66.4155 206.427 65.9515 206.32 65.4395 206.32C64.7035 206.32 64.0742 206.555 63.5515 207.024C63.0395 207.493 62.7462 208.144 62.6715 208.976H68.2075ZM73.0894 206.656C73.3454 206.155 73.708 205.765 74.1774 205.488C74.6574 205.211 75.2387 205.072 75.9214 205.072V206.576H75.5374C73.9054 206.576 73.0894 207.461 73.0894 209.232V214H71.6334V205.232H73.0894V206.656ZM80.8661 212.656L83.5861 205.232H85.1381L81.6981 214H80.0021L76.5621 205.232H78.1301L80.8661 212.656ZM87.3229 203.808C87.0455 203.808 86.8109 203.712 86.6189 203.52C86.4269 203.328 86.3309 203.093 86.3309 202.816C86.3309 202.539 86.4269 202.304 86.6189 202.112C86.8109 201.92 87.0455 201.824 87.3229 201.824C87.5895 201.824 87.8135 201.92 87.9949 202.112C88.1869 202.304 88.2829 202.539 88.2829 202.816C88.2829 203.093 88.1869 203.328 87.9949 203.52C87.8135 203.712 87.5895 203.808 87.3229 203.808ZM88.0269 205.232V214H86.5709V205.232H88.0269ZM89.9644 209.6C89.9644 208.693 90.1457 207.904 90.5084 207.232C90.871 206.549 91.3724 206.021 92.0124 205.648C92.663 205.275 93.4044 205.088 94.2364 205.088C95.3137 205.088 96.199 205.349 96.8924 205.872C97.5964 206.395 98.0604 207.12 98.2844 208.048H96.7164C96.567 207.515 96.2737 207.093 95.8364 206.784C95.4097 206.475 94.8764 206.32 94.2364 206.32C93.4044 206.32 92.7324 206.608 92.2204 207.184C91.7084 207.749 91.4524 208.555 91.4524 209.6C91.4524 210.656 91.7084 211.472 92.2204 212.048C92.7324 212.624 93.4044 212.912 94.2364 212.912C94.8764 212.912 95.4097 212.763 95.8364 212.464C96.263 212.165 96.5564 211.739 96.7164 211.184H98.2844C98.0497 212.08 97.5804 212.8 96.8764 213.344C96.1724 213.877 95.2924 214.144 94.2364 214.144C93.4044 214.144 92.663 213.957 92.0124 213.584C91.3724 213.211 90.871 212.683 90.5084 212C90.1457 211.317 89.9644 210.517 89.9644 209.6ZM108.227 209.28C108.227 209.557 108.211 209.851 108.179 210.16H101.171C101.224 211.024 101.518 211.701 102.051 212.192C102.595 212.672 103.251 212.912 104.019 212.912C104.648 212.912 105.171 212.768 105.587 212.48C106.014 212.181 106.312 211.787 106.483 211.296H108.051C107.816 212.139 107.347 212.827 106.643 213.36C105.939 213.883 105.064 214.144 104.019 214.144C103.187 214.144 102.44 213.957 101.779 213.584C101.128 213.211 100.616 212.683 100.243 212C99.8698 211.307 99.6831 210.507 99.6831 209.6C99.6831 208.693 99.8645 207.899 100.227 207.216C100.59 206.533 101.096 206.011 101.747 205.648C102.408 205.275 103.166 205.088 104.019 205.088C104.851 205.088 105.587 205.269 106.227 205.632C106.867 205.995 107.358 206.496 107.699 207.136C108.051 207.765 108.227 208.48 108.227 209.28ZM106.723 208.976C106.723 208.421 106.6 207.947 106.355 207.552C106.11 207.147 105.774 206.843 105.347 206.64C104.931 206.427 104.467 206.32 103.955 206.32C103.219 206.32 102.59 206.555 102.067 207.024C101.555 207.493 101.262 208.144 101.187 208.976H106.723Z" fill="#221F3C"/>
<path d="M55.4887 247.111C54.7527 247.111 54.0914 246.983 53.5047 246.727C52.9287 246.46 52.4754 246.098 52.1447 245.639C51.814 245.17 51.6434 244.631 51.6327 244.023H53.1847C53.238 244.546 53.4514 244.988 53.8247 245.351C54.2087 245.703 54.7634 245.879 55.4887 245.879C56.182 245.879 56.726 245.708 57.1207 245.367C57.526 245.015 57.7287 244.567 57.7287 244.023C57.7287 243.596 57.6114 243.25 57.3767 242.983C57.142 242.716 56.8487 242.514 56.4967 242.375C56.1447 242.236 55.67 242.087 55.0727 241.927C54.3367 241.735 53.7447 241.543 53.2967 241.351C52.8594 241.159 52.4807 240.86 52.1607 240.455C51.8514 240.039 51.6967 239.484 51.6967 238.791C51.6967 238.183 51.8514 237.644 52.1607 237.175C52.47 236.706 52.902 236.343 53.4567 236.087C54.022 235.831 54.6674 235.703 55.3927 235.703C56.438 235.703 57.2914 235.964 57.9527 236.487C58.6247 237.01 59.0034 237.703 59.0887 238.567H57.4887C57.4354 238.14 57.2114 237.767 56.8167 237.447C56.422 237.116 55.8994 236.951 55.2487 236.951C54.6407 236.951 54.1447 237.111 53.7607 237.431C53.3767 237.74 53.1847 238.178 53.1847 238.743C53.1847 239.148 53.2967 239.479 53.5207 239.735C53.7554 239.991 54.038 240.188 54.3687 240.327C54.71 240.455 55.1847 240.604 55.7927 240.775C56.5287 240.978 57.1207 241.18 57.5687 241.383C58.0167 241.575 58.4007 241.879 58.7207 242.295C59.0407 242.7 59.2007 243.255 59.2007 243.959C59.2007 244.503 59.0567 245.015 58.7687 245.495C58.4807 245.975 58.054 246.364 57.4887 246.663C56.9234 246.962 56.2567 247.111 55.4887 247.111ZM63.1193 239.431V244.599C63.1193 245.026 63.21 245.33 63.3913 245.511C63.5727 245.682 63.8873 245.767 64.3353 245.767H65.4073V246.999H64.0953C63.2847 246.999 62.6767 246.812 62.2713 246.439C61.866 246.066 61.6633 245.452 61.6633 244.599V239.431H60.5273V238.231H61.6633V236.023H63.1193V238.231H65.4073V239.431H63.1193ZM66.6275 242.583C66.6275 241.687 66.8088 240.903 67.1715 240.231C67.5341 239.548 68.0301 239.02 68.6595 238.647C69.2995 238.274 70.0088 238.087 70.7875 238.087C71.5555 238.087 72.2221 238.252 72.7875 238.583C73.3528 238.914 73.7741 239.33 74.0515 239.831V238.231H75.5235V246.999H74.0515V245.367C73.7635 245.879 73.3315 246.306 72.7555 246.647C72.1901 246.978 71.5288 247.143 70.7715 247.143C69.9928 247.143 69.2888 246.951 68.6595 246.567C68.0301 246.183 67.5341 245.644 67.1715 244.951C66.8088 244.258 66.6275 243.468 66.6275 242.583ZM74.0515 242.599C74.0515 241.938 73.9181 241.362 73.6515 240.871C73.3848 240.38 73.0221 240.007 72.5635 239.751C72.1155 239.484 71.6195 239.351 71.0755 239.351C70.5315 239.351 70.0355 239.479 69.5875 239.735C69.1395 239.991 68.7821 240.364 68.5155 240.855C68.2488 241.346 68.1155 241.922 68.1155 242.583C68.1155 243.255 68.2488 243.842 68.5155 244.343C68.7821 244.834 69.1395 245.212 69.5875 245.479C70.0355 245.735 70.5315 245.863 71.0755 245.863C71.6195 245.863 72.1155 245.735 72.5635 245.479C73.0221 245.212 73.3848 244.834 73.6515 244.343C73.9181 243.842 74.0515 243.26 74.0515 242.599ZM81.552 239.431H79.712V246.999H78.256V239.431H77.12V238.231H78.256V237.607C78.256 236.626 78.5066 235.911 79.008 235.463C79.52 235.004 80.336 234.775 81.456 234.775V235.991C80.816 235.991 80.3626 236.119 80.096 236.375C79.84 236.62 79.712 237.031 79.712 237.607V238.231H81.552V239.431ZM86.8176 239.431H84.9776V246.999H83.5216V239.431H82.3856V238.231H83.5216V237.607C83.5216 236.626 83.7722 235.911 84.2736 235.463C84.7856 235.004 85.6016 234.775 86.7216 234.775V235.991C86.0816 235.991 85.6282 236.119 85.3616 236.375C85.1056 236.62 84.9776 237.031 84.9776 237.607V238.231H86.8176V239.431Z" fill="#221F3C"/>
<path d="M54.6811 302.111C53.9451 302.111 53.2838 301.983 52.6971 301.727C52.1211 301.46 51.6678 301.098 51.3371 300.639C51.0064 300.17 50.8358 299.631 50.8251 299.023H52.3771C52.4304 299.546 52.6438 299.988 53.0171 300.351C53.4011 300.703 53.9558 300.879 54.6811 300.879C55.3744 300.879 55.9184 300.708 56.3131 300.367C56.7184 300.015 56.9211 299.567 56.9211 299.023C56.9211 298.596 56.8038 298.25 56.5691 297.983C56.3344 297.716 56.0411 297.514 55.6891 297.375C55.3371 297.236 54.8624 297.087 54.2651 296.927C53.5291 296.735 52.9371 296.543 52.4891 296.351C52.0518 296.159 51.6731 295.86 51.3531 295.455C51.0438 295.039 50.8891 294.484 50.8891 293.791C50.8891 293.183 51.0438 292.644 51.3531 292.175C51.6624 291.706 52.0944 291.343 52.6491 291.087C53.2144 290.831 53.8598 290.703 54.5851 290.703C55.6304 290.703 56.4838 290.964 57.1451 291.487C57.8171 292.01 58.1958 292.703 58.2811 293.567H56.6811C56.6278 293.14 56.4038 292.767 56.0091 292.447C55.6144 292.116 55.0918 291.951 54.4411 291.951C53.8331 291.951 53.3371 292.111 52.9531 292.431C52.5691 292.74 52.3771 293.178 52.3771 293.743C52.3771 294.148 52.4891 294.479 52.7131 294.735C52.9478 294.991 53.2304 295.188 53.5611 295.327C53.9024 295.455 54.3771 295.604 54.9851 295.775C55.7211 295.978 56.3131 296.18 56.7611 296.383C57.2091 296.575 57.5931 296.879 57.9131 297.295C58.2331 297.7 58.3931 298.255 58.3931 298.959C58.3931 299.503 58.2491 300.015 57.9611 300.495C57.6731 300.975 57.2464 301.364 56.6811 301.663C56.1158 301.962 55.4491 302.111 54.6811 302.111ZM68.5357 297.279C68.5357 297.556 68.5197 297.85 68.4877 298.159H61.4797C61.533 299.023 61.8264 299.7 62.3597 300.191C62.9037 300.671 63.5597 300.911 64.3277 300.911C64.957 300.911 65.4797 300.767 65.8957 300.479C66.3224 300.18 66.621 299.786 66.7917 299.295H68.3597C68.125 300.138 67.6557 300.826 66.9517 301.359C66.2477 301.882 65.373 302.143 64.3277 302.143C63.4957 302.143 62.749 301.956 62.0877 301.583C61.437 301.21 60.925 300.682 60.5517 299.999C60.1784 299.306 59.9917 298.506 59.9917 297.599C59.9917 296.692 60.173 295.898 60.5357 295.215C60.8984 294.532 61.405 294.01 62.0557 293.647C62.717 293.274 63.4744 293.087 64.3277 293.087C65.1597 293.087 65.8957 293.268 66.5357 293.631C67.1757 293.994 67.6664 294.495 68.0077 295.135C68.3597 295.764 68.5357 296.479 68.5357 297.279ZM67.0317 296.975C67.0317 296.42 66.909 295.946 66.6637 295.551C66.4184 295.146 66.0824 294.842 65.6557 294.639C65.2397 294.426 64.7757 294.319 64.2637 294.319C63.5277 294.319 62.8984 294.554 62.3757 295.023C61.8637 295.492 61.5704 296.143 61.4957 296.975H67.0317ZM71.9136 294.655C72.1696 294.154 72.5323 293.764 73.0016 293.487C73.4816 293.21 74.0629 293.071 74.7456 293.071V294.575H74.3616C72.7296 294.575 71.9136 295.46 71.9136 297.231V301.999H70.4576V293.231H71.9136V294.655ZM79.6903 300.655L82.4103 293.231H83.9623L80.5223 301.999H78.8263L75.3863 293.231H76.9543L79.6903 300.655ZM86.1471 291.807C85.8698 291.807 85.6351 291.711 85.4431 291.519C85.2511 291.327 85.1551 291.092 85.1551 290.815C85.1551 290.538 85.2511 290.303 85.4431 290.111C85.6351 289.919 85.8698 289.823 86.1471 289.823C86.4138 289.823 86.6378 289.919 86.8191 290.111C87.0111 290.303 87.1071 290.538 87.1071 290.815C87.1071 291.092 87.0111 291.327 86.8191 291.519C86.6378 291.711 86.4138 291.807 86.1471 291.807ZM86.8511 293.231V301.999H85.3951V293.231H86.8511ZM88.7886 297.599C88.7886 296.692 88.9699 295.903 89.3326 295.231C89.6953 294.548 90.1966 294.02 90.8366 293.647C91.4873 293.274 92.2286 293.087 93.0606 293.087C94.1379 293.087 95.0233 293.348 95.7166 293.871C96.4206 294.394 96.8846 295.119 97.1086 296.047H95.5406C95.3913 295.514 95.0979 295.092 94.6606 294.783C94.2339 294.474 93.7006 294.319 93.0606 294.319C92.2286 294.319 91.5566 294.607 91.0446 295.183C90.5326 295.748 90.2766 296.554 90.2766 297.599C90.2766 298.655 90.5326 299.471 91.0446 300.047C91.5566 300.623 92.2286 300.911 93.0606 300.911C93.7006 300.911 94.2339 300.762 94.6606 300.463C95.0873 300.164 95.3806 299.738 95.5406 299.183H97.1086C96.8739 300.079 96.4046 300.799 95.7006 301.343C94.9966 301.876 94.1166 302.143 93.0606 302.143C92.2286 302.143 91.4873 301.956 90.8366 301.583C90.1966 301.21 89.6953 300.682 89.3326 299.999C88.9699 299.316 88.7886 298.516 88.7886 297.599ZM107.051 297.279C107.051 297.556 107.035 297.85 107.003 298.159H99.9953C100.049 299.023 100.342 299.7 100.875 300.191C101.419 300.671 102.075 300.911 102.843 300.911C103.473 300.911 103.995 300.767 104.411 300.479C104.838 300.18 105.137 299.786 105.307 299.295H106.875C106.641 300.138 106.171 300.826 105.467 301.359C104.763 301.882 103.889 302.143 102.843 302.143C102.011 302.143 101.265 301.956 100.603 301.583C99.9527 301.21 99.4407 300.682 99.0673 299.999C98.694 299.306 98.5073 298.506 98.5073 297.599C98.5073 296.692 98.6887 295.898 99.0513 295.215C99.414 294.532 99.9207 294.01 100.571 293.647C101.233 293.274 101.99 293.087 102.843 293.087C103.675 293.087 104.411 293.268 105.051 293.631C105.691 293.994 106.182 294.495 106.523 295.135C106.875 295.764 107.051 296.479 107.051 297.279ZM105.547 296.975C105.547 296.42 105.425 295.946 105.179 295.551C104.934 295.146 104.598 294.842 104.171 294.639C103.755 294.426 103.291 294.319 102.779 294.319C102.043 294.319 101.414 294.554 100.891 295.023C100.379 295.492 100.086 296.143 100.011 296.975H105.547ZM112.077 302.143C111.405 302.143 110.803 302.031 110.269 301.807C109.736 301.572 109.315 301.252 109.005 300.847C108.696 300.431 108.525 299.956 108.493 299.423H109.997C110.04 299.86 110.243 300.218 110.605 300.495C110.979 300.772 111.464 300.911 112.061 300.911C112.616 300.911 113.053 300.788 113.373 300.543C113.693 300.298 113.853 299.988 113.853 299.615C113.853 299.231 113.683 298.948 113.341 298.767C113 298.575 112.472 298.388 111.757 298.207C111.107 298.036 110.573 297.866 110.157 297.695C109.752 297.514 109.4 297.252 109.101 296.911C108.813 296.559 108.669 296.1 108.669 295.535C108.669 295.087 108.803 294.676 109.069 294.303C109.336 293.93 109.715 293.636 110.205 293.423C110.696 293.199 111.256 293.087 111.885 293.087C112.856 293.087 113.64 293.332 114.237 293.823C114.835 294.314 115.155 294.986 115.197 295.839H113.741C113.709 295.38 113.523 295.012 113.181 294.735C112.851 294.458 112.403 294.319 111.837 294.319C111.315 294.319 110.899 294.431 110.589 294.655C110.28 294.879 110.125 295.172 110.125 295.535C110.125 295.823 110.216 296.063 110.397 296.255C110.589 296.436 110.824 296.586 111.101 296.703C111.389 296.81 111.784 296.932 112.285 297.071C112.915 297.242 113.427 297.412 113.821 297.583C114.216 297.743 114.552 297.988 114.829 298.319C115.117 298.65 115.267 299.082 115.277 299.615C115.277 300.095 115.144 300.527 114.877 300.911C114.611 301.295 114.232 301.599 113.741 301.823C113.261 302.036 112.707 302.143 112.077 302.143Z" fill="#221F3C"/>
<path opacity="0.999" d="M193.6 146.331L199.53 150.095L197.961 142.995L203.195 138.221L196.295 137.598L193.6 130.904L190.9 137.597L184 138.22L189.234 142.994L187.665 150.094L193.6 146.331Z" fill="#DFA12D"/>
<path d="M212.791 146.331L218.721 150.095L217.152 142.995L222.386 138.221L215.486 137.598L212.791 130.904L210.091 137.597L203.191 138.22L208.425 142.994L206.856 150.094L212.791 146.331Z" fill="#DFA12D"/>
<path d="M231.982 146.331L237.912 150.095L236.343 142.995L241.577 138.221L234.677 137.598L231.982 130.904L229.282 137.597L222.382 138.22L227.616 142.994L226.047 150.094L231.982 146.331Z" fill="#DFA12D"/>
<path d="M251.172 146.331L257.102 150.095L255.533 142.995L260.767 138.221L253.867 137.598L251.172 130.904L248.472 137.597L241.572 138.22L246.806 142.994L245.237 150.094L251.172 146.331Z" fill="#DFA12D"/>
<path opacity="0.448" d="M270.363 146.331L276.293 150.095L274.724 142.995L279.958 138.221L273.058 137.598L270.363 130.904L267.663 137.597L260.763 138.22L265.997 142.994L264.428 150.094L270.363 146.331Z" fill="#B7BCF3"/>
<path opacity="0.999" d="M193.6 212.33L199.53 216.094L197.961 208.994L203.195 204.22L196.295 203.597L193.6 196.903L190.9 203.596L184 204.219L189.234 208.993L187.665 216.093L193.6 212.33Z" fill="#DFA12D"/>
<path d="M212.791 212.33L218.721 216.094L217.152 208.994L222.386 204.22L215.486 203.597L212.791 196.903L210.091 203.596L203.191 204.219L208.425 208.993L206.856 216.093L212.791 212.33Z" fill="#DFA12D"/>
<path d="M231.982 212.33L237.912 216.094L236.343 208.994L241.577 204.22L234.677 203.597L231.982 196.903L229.282 203.596L222.382 204.219L227.616 208.993L226.047 216.093L231.982 212.33Z" fill="#DFA12D"/>
<path d="M251.172 212.33L257.102 216.094L255.533 208.994L260.767 204.22L253.867 203.597L251.172 196.903L248.472 203.596L241.572 204.219L246.806 208.993L245.237 216.093L251.172 212.33Z" fill="#DFA12D"/>
<path opacity="0.448" d="M270.363 212.33L276.293 216.094L274.724 208.994L279.958 204.22L273.058 203.597L270.363 196.903L267.663 203.596L260.763 204.219L265.997 208.993L264.428 216.093L270.363 212.33Z" fill="#B7BCF3"/>
<path opacity="0.999" d="M193.6 245.329L199.53 249.093L197.961 241.993L203.195 237.219L196.295 236.596L193.6 229.902L190.9 236.595L184 237.218L189.234 241.992L187.665 249.092L193.6 245.329Z" fill="#DFA12D"/>
<path d="M212.791 245.329L218.721 249.093L217.152 241.993L222.386 237.219L215.486 236.596L212.791 229.902L210.091 236.595L203.191 237.218L208.425 241.992L206.856 249.092L212.791 245.329Z" fill="#DFA12D"/>
<path d="M231.982 245.329L237.912 249.093L236.343 241.993L241.577 237.219L234.677 236.596L231.982 229.902L229.282 236.595L222.382 237.218L227.616 241.992L226.047 249.092L231.982 245.329Z" fill="#DFA12D"/>
<path d="M251.172 245.329L257.102 249.093L255.533 241.993L260.767 237.219L253.867 236.596L251.172 229.902L248.472 236.595L241.572 237.218L246.806 241.992L245.237 249.092L251.172 245.329Z" fill="#DFA12D"/>
<path opacity="0.448" d="M270.363 245.329L276.293 249.093L274.724 241.993L279.958 237.219L273.058 236.596L270.363 229.902L267.663 236.595L260.763 237.218L265.997 241.992L264.428 249.092L270.363 245.329Z" fill="#B7BCF3"/>
<path opacity="0.999" d="M193.6 179.331L199.53 183.095L197.961 175.995L203.195 171.221L196.295 170.598L193.6 163.904L190.9 170.597L184 171.22L189.234 175.994L187.665 183.094L193.6 179.331Z" fill="#DFA12D"/>
<path d="M212.791 179.331L218.721 183.095L217.152 175.995L222.386 171.221L215.486 170.598L212.791 163.904L210.091 170.597L203.191 171.22L208.425 175.994L206.856 183.094L212.791 179.331Z" fill="#DFA12D"/>
<path d="M231.982 179.331L237.912 183.095L236.343 175.995L241.577 171.221L234.677 170.598L231.982 163.904L229.282 170.597L222.382 171.22L227.616 175.994L226.047 183.094L231.982 179.331Z" fill="#DFA12D"/>
<path d="M251.172 179.331L257.102 183.095L255.533 175.995L260.767 171.221L253.867 170.598L251.172 163.904L248.472 170.597L241.572 171.22L246.806 175.994L245.237 183.094L251.172 179.331Z" fill="#DFA12D"/>
<path opacity="0.448" d="M270.363 179.331L276.293 183.095L274.724 175.995L279.958 171.221L273.058 170.598L270.363 163.904L267.663 170.597L260.763 171.22L265.997 175.994L264.428 183.094L270.363 179.331Z" fill="#B7BCF3"/>
<path d="M270.356 163.9C270.368 163.834 270.356 165.751 270.356 165.751V179.5L264.522 183.1L266.536 176.02L261.043 170.98L268.184 170.539C268.184 170.539 270.345 163.97 270.356 163.9Z" fill="#DFA12D" stroke="#DFA12D" stroke-linecap="round"/>
<g filter="url(#filter1_d_2_2077)">
<path d="M403.425 317.98H372.836C367.313 317.98 362.836 322.457 362.836 327.98V358.569C362.836 364.092 367.313 368.569 372.836 368.569H403.425C408.948 368.569 413.425 364.092 413.425 358.569V327.98C413.425 322.457 408.948 317.98 403.425 317.98Z" fill="white"/>
</g>
<path d="M401.63 340.716C401.494 340.547 401.323 340.411 401.128 340.316C400.934 340.221 400.72 340.169 400.504 340.166H399.866V339.651C399.85 339.191 399.652 338.757 399.317 338.443C398.981 338.128 398.535 337.959 398.075 337.973H397.234V337.022C397.233 336.797 397.186 336.575 397.096 336.368C397.006 336.162 396.875 335.976 396.711 335.822C396.372 335.521 395.933 335.354 395.479 335.354C395.025 335.354 394.587 335.521 394.248 335.822C394.084 335.976 393.953 336.162 393.863 336.368C393.773 336.575 393.726 336.797 393.725 337.022V341.482H382.321V337.022C382.32 336.797 382.273 336.575 382.183 336.368C382.093 336.162 381.962 335.976 381.798 335.822C381.459 335.521 381.02 335.354 380.566 335.354C380.112 335.354 379.674 335.521 379.335 335.822C379.171 335.976 379.04 336.162 378.95 336.368C378.86 336.575 378.813 336.797 378.812 337.022V337.973H377.869C377.433 337.97 377.011 338.131 376.688 338.424C376.53 338.568 376.403 338.743 376.316 338.938C376.229 339.133 376.183 339.343 376.181 339.557V340.166H375.549C375.331 340.17 375.117 340.221 374.922 340.316C374.726 340.412 374.554 340.549 374.418 340.719C374.135 341.067 373.983 341.503 373.987 341.952V344.521C373.982 344.97 374.135 345.406 374.418 345.754C374.554 345.924 374.726 346.061 374.922 346.157C375.117 346.252 375.331 346.304 375.549 346.307H376.181V346.916C376.183 347.13 376.228 347.341 376.316 347.535C376.403 347.73 376.529 347.905 376.687 348.049C377.01 348.341 377.431 348.502 377.867 348.499H378.81V349.45C378.811 349.675 378.858 349.898 378.948 350.104C379.038 350.31 379.169 350.496 379.333 350.65C379.668 350.961 380.108 351.134 380.564 351.134C381.021 351.134 381.461 350.961 381.796 350.65C381.96 350.496 382.091 350.31 382.181 350.104C382.271 349.898 382.318 349.675 382.319 349.45V344.99H393.719V349.45C393.72 349.675 393.767 349.898 393.857 350.104C393.947 350.31 394.078 350.496 394.242 350.65C394.577 350.961 395.017 351.134 395.473 351.134C395.93 351.134 396.37 350.961 396.705 350.65C396.869 350.496 397 350.31 397.09 350.104C397.18 349.898 397.227 349.675 397.228 349.45V348.499H398.069C398.529 348.513 398.975 348.344 399.311 348.03C399.647 347.715 399.844 347.281 399.86 346.821V346.306H400.498C400.715 346.303 400.928 346.252 401.123 346.157C401.317 346.062 401.489 345.925 401.625 345.756C401.907 345.409 402.058 344.975 402.054 344.528V341.945C402.06 341.499 401.91 341.064 401.63 340.716ZM375.549 345.429C375.46 345.426 375.373 345.403 375.294 345.362C375.215 345.321 375.146 345.263 375.092 345.192C374.941 345.001 374.86 344.764 374.864 344.52V341.952C374.861 341.709 374.941 341.471 375.092 341.28C375.146 341.209 375.215 341.151 375.294 341.11C375.373 341.069 375.46 341.046 375.549 341.043H376.181V345.429H375.549ZM377.869 347.622C377.653 347.624 377.444 347.545 377.282 347.402C377.213 347.341 377.157 347.266 377.118 347.182C377.08 347.098 377.059 347.007 377.058 346.915V339.557C377.059 339.465 377.079 339.374 377.118 339.29C377.156 339.206 377.212 339.131 377.281 339.07C377.443 338.927 377.653 338.849 377.869 338.85H378.812V347.623L377.869 347.622ZM381.444 349.45C381.443 349.555 381.421 349.66 381.378 349.756C381.336 349.852 381.273 349.939 381.196 350.01C381.021 350.16 380.798 350.243 380.567 350.243C380.336 350.243 380.113 350.16 379.938 350.01C379.86 349.939 379.798 349.852 379.756 349.756C379.713 349.66 379.691 349.555 379.69 349.45V337.022C379.691 336.917 379.713 336.813 379.756 336.716C379.798 336.62 379.86 336.533 379.938 336.462C380.11 336.305 380.334 336.218 380.567 336.218C380.8 336.218 381.025 336.305 381.197 336.462C381.274 336.533 381.336 336.62 381.379 336.716C381.422 336.813 381.444 336.917 381.445 337.022V349.45H381.444ZM382.321 344.113V342.359H393.721V344.114L382.321 344.113ZM396.357 349.45C396.356 349.555 396.334 349.66 396.291 349.756C396.249 349.852 396.186 349.939 396.109 350.01C395.934 350.16 395.711 350.243 395.48 350.243C395.249 350.243 395.026 350.16 394.851 350.01C394.773 349.939 394.711 349.852 394.669 349.756C394.626 349.66 394.604 349.555 394.603 349.45V337.022C394.604 336.917 394.626 336.813 394.669 336.716C394.711 336.62 394.773 336.533 394.851 336.462C395.023 336.305 395.247 336.218 395.48 336.218C395.713 336.218 395.938 336.305 396.11 336.462C396.188 336.533 396.25 336.62 396.292 336.716C396.335 336.813 396.357 336.917 396.358 337.022L396.357 349.45ZM398.987 346.821C398.97 347.048 398.865 347.259 398.694 347.409C398.523 347.559 398.3 347.635 398.073 347.621H397.232V338.85H398.073C398.3 338.836 398.523 338.913 398.694 339.062C398.865 339.212 398.97 339.423 398.987 339.65V346.821ZM401.187 344.527C401.19 344.769 401.111 345.004 400.962 345.194C400.908 345.264 400.84 345.322 400.762 345.362C400.683 345.403 400.597 345.426 400.509 345.429H399.871V341.039H400.509C400.597 341.043 400.683 341.065 400.762 341.106C400.84 341.147 400.908 341.204 400.962 341.274C401.111 341.464 401.191 341.7 401.187 341.941V344.527Z" fill="#2D3DDF"/>
<g filter="url(#filter2_d_2_2077)">
<path d="M160.563 317.98H129.974C124.451 317.98 119.974 322.457 119.974 327.98V358.569C119.974 364.092 124.451 368.569 129.974 368.569H160.563C166.086 368.569 170.563 364.092 170.563 358.569V327.98C170.563 322.457 166.086 317.98 160.563 317.98Z" fill="white"/>
</g>
<path d="M158.886 343.268H135.945V335.724C135.94 335.238 136.068 334.761 136.314 334.343C136.561 333.924 136.918 333.581 137.345 333.351C137.818 333.094 138.358 332.986 138.894 333.039C138.621 333.865 138.582 334.751 138.781 335.599C138.981 336.446 139.411 337.221 140.025 337.839L141.456 339.27C141.581 339.395 141.73 339.495 141.894 339.562C142.057 339.63 142.233 339.665 142.41 339.665C142.587 339.665 142.763 339.63 142.926 339.562C143.09 339.495 143.239 339.395 143.364 339.27L148.135 334.499C148.26 334.374 148.36 334.225 148.427 334.061C148.495 333.898 148.53 333.722 148.53 333.545C148.53 333.368 148.495 333.192 148.427 333.029C148.36 332.865 148.26 332.716 148.135 332.591L146.705 331.156C145.908 330.363 144.855 329.881 143.734 329.796C142.613 329.711 141.499 330.03 140.592 330.694C139.774 330.375 138.891 330.26 138.019 330.36C137.148 330.46 136.313 330.772 135.589 331.267C134.865 331.763 134.273 332.428 133.864 333.205C133.456 333.982 133.243 334.846 133.245 335.724V343.268H131.895C131.537 343.268 131.194 343.41 130.94 343.663C130.687 343.917 130.545 344.26 130.545 344.618C130.545 344.976 130.687 345.319 130.94 345.573C131.194 345.826 131.537 345.968 131.895 345.968H133.245V350.017C133.248 350.852 133.509 351.665 133.992 352.345C134.475 353.026 135.158 353.54 135.945 353.817V355.417C135.945 355.775 136.087 356.118 136.34 356.372C136.594 356.625 136.937 356.767 137.295 356.767C137.653 356.767 137.996 356.625 138.25 356.372C138.503 356.118 138.645 355.775 138.645 355.417V354.067H152.145V355.417C152.145 355.775 152.287 356.118 152.54 356.372C152.794 356.625 153.137 356.767 153.495 356.767C153.853 356.767 154.196 356.625 154.45 356.372C154.703 356.118 154.845 355.775 154.845 355.417V353.817C155.632 353.54 156.314 353.026 156.798 352.345C157.281 351.665 157.542 350.852 157.545 350.017V345.967H158.895C159.253 345.967 159.596 345.825 159.85 345.572C160.103 345.318 160.245 344.975 160.245 344.617C160.245 344.259 160.103 343.916 159.85 343.662C159.596 343.409 159.253 343.267 158.895 343.267L158.886 343.268ZM141.935 333.065C142.315 332.686 142.83 332.473 143.366 332.473C143.903 332.473 144.418 332.686 144.798 333.065L145.275 333.542L142.412 336.404L141.935 335.927C141.556 335.547 141.343 335.032 141.343 334.495C141.343 333.959 141.556 333.445 141.935 333.065ZM154.835 350.016C154.835 350.374 154.693 350.717 154.44 350.971C154.186 351.224 153.843 351.366 153.485 351.366H137.293C136.935 351.366 136.592 351.224 136.338 350.971C136.085 350.717 135.943 350.374 135.943 350.016V345.967H154.837L154.835 350.016Z" fill="#2D3DDF"/>
<g filter="url(#filter3_d_2_2077)">
<path d="M291.997 317.98H322.35C323.679 317.98 324.994 318.242 326.222 318.75C327.449 319.259 328.565 320.004 329.504 320.943C330.444 321.883 331.189 322.998 331.698 324.226C332.206 325.454 332.468 326.769 332.468 328.098V358.451C332.468 359.78 332.206 361.095 331.698 362.323C331.189 363.551 330.444 364.666 329.504 365.605C328.565 366.545 327.449 367.29 326.222 367.799C324.994 368.307 323.679 368.569 322.35 368.569H291.997C289.313 368.569 286.74 367.503 284.842 365.605C282.945 363.708 281.879 361.134 281.879 358.451V328.098C281.879 325.415 282.945 322.841 284.842 320.943C286.74 319.046 289.313 317.98 291.997 317.98Z" fill="white"/>
</g>
<path d="M299.114 342.757C301.187 341.03 303.799 340.085 306.497 340.085C309.195 340.085 311.808 341.03 313.881 342.757" stroke="#2D3DDF" stroke-width="1.2" stroke-linecap="round" stroke-linejoin="round"/>
<path d="M295.359 339.034C298.424 336.332 302.369 334.842 306.455 334.842C310.541 334.842 314.486 336.332 317.551 339.034" stroke="#2D3DDF" stroke-width="1.2" stroke-linecap="round" stroke-linejoin="round"/>
<path d="M302.816 346.491C303.881 345.735 305.154 345.328 306.46 345.328C307.766 345.328 309.04 345.735 310.105 346.491" stroke="#2D3DDF" stroke-width="1.2" stroke-linecap="round" stroke-linejoin="round"/>
<circle cx="306.455" cy="350.571" r="0.6" fill="#2D3DDF"/>
<g filter="url(#filter4_d_2_2077)">
<path d="M90.589 317.98H60C54.4772 317.98 50 322.457 50 327.98V358.569C50 364.092 54.4772 368.569 60 368.569H90.589C96.1118 368.569 100.589 364.092 100.589 358.569V327.98C100.589 322.457 96.1118 317.98 90.589 317.98Z" fill="white"/>
</g>
<path d="M89.44 339.226C89.3734 339.144 89.2895 339.079 89.1944 339.033C89.0993 338.988 88.9953 338.964 88.89 338.964H86.19C85.524 337.208 84.657 335.488 83.672 334.839C80.262 332.596 71.218 332.596 67.808 334.839C66.822 335.489 65.958 337.211 65.289 338.964H62.595C62.4896 338.964 62.3855 338.988 62.2903 339.033C62.195 339.078 62.1111 339.144 62.0446 339.226C61.978 339.308 61.9305 339.403 61.9055 339.506C61.8805 339.608 61.8786 339.715 61.9 339.818L62.3 341.754C62.3329 341.914 62.4201 342.058 62.5467 342.161C62.6734 342.264 62.8317 342.32 62.995 342.32H63.795C63.0488 343.191 62.6401 344.302 62.643 345.449C62.6288 346.108 62.7534 346.762 63.0087 347.369C63.2641 347.976 63.6444 348.523 64.125 348.973C64.136 348.982 64.146 348.989 64.156 348.998V351.707C64.1563 351.989 64.2685 352.26 64.4679 352.459C64.6674 352.659 64.9379 352.771 65.22 352.771H67.709C67.9911 352.771 68.2616 352.659 68.4611 352.459C68.6606 352.26 68.7727 351.989 68.773 351.707V350.618H82.711V351.707C82.7113 351.989 82.8235 352.26 83.0229 352.459C83.2224 352.659 83.4929 352.771 83.775 352.771H86.263C86.545 352.77 86.8154 352.658 87.0148 352.459C87.2142 352.259 87.3265 351.989 87.327 351.707V349.049C88.2376 348.183 88.7784 346.999 88.8363 345.745C88.8943 344.49 88.4649 343.261 87.638 342.315H88.49C88.6534 342.315 88.812 342.259 88.9387 342.156C89.0654 342.053 89.1524 341.909 89.185 341.749L89.585 339.814C89.6053 339.711 89.6029 339.605 89.5778 339.504C89.5528 339.402 89.5057 339.307 89.44 339.226ZM68.98 336.616C71.698 334.827 79.787 334.827 82.503 336.616C83.031 336.962 83.71 338.362 84.332 340.077H67.152C67.773 338.363 68.452 336.964 68.98 336.616ZM65.797 345.716C65.797 345.302 65.9198 344.897 66.1499 344.553C66.38 344.208 66.707 343.94 67.0897 343.781C67.4723 343.623 67.8933 343.581 68.2995 343.662C68.7057 343.743 69.0788 343.942 69.3717 344.235C69.6645 344.528 69.864 344.901 69.9448 345.307C70.0256 345.714 69.9841 346.135 69.8256 346.517C69.6671 346.9 69.3987 347.227 69.0544 347.457C68.71 347.687 68.3052 347.81 67.891 347.81C67.616 347.81 67.3437 347.756 67.0896 347.651C66.8355 347.546 66.6046 347.392 66.41 347.197C66.2155 347.003 66.0611 346.772 65.9558 346.518C65.8504 346.264 65.7961 345.992 65.796 345.717L65.797 345.716ZM83.622 347.81C83.2079 347.81 82.803 347.687 82.4586 347.457C82.1143 347.227 81.8459 346.9 81.6874 346.517C81.5289 346.135 81.4874 345.714 81.5682 345.307C81.649 344.901 81.8485 344.528 82.1413 344.235C82.4342 343.942 82.8073 343.743 83.2135 343.662C83.6197 343.581 84.0407 343.623 84.4233 343.781C84.806 343.94 85.133 344.208 85.3631 344.553C85.5932 344.897 85.716 345.302 85.716 345.716C85.7161 345.991 85.6621 346.263 85.5569 346.518C85.4517 346.772 85.2975 347.003 85.103 347.197C84.9086 347.392 84.6777 347.546 84.4236 347.651C84.1695 347.757 83.8971 347.81 83.622 347.81Z" fill="#2D3DDF"/>
<g filter="url(#filter5_d_2_2077)">
<path d="M211.033 317.98H241.386C242.715 317.98 244.03 318.242 245.258 318.75C246.486 319.259 247.601 320.004 248.541 320.943C249.48 321.883 250.225 322.998 250.734 324.226C251.242 325.454 251.504 326.769 251.504 328.098V358.451C251.504 359.78 251.242 361.095 250.734 362.323C250.225 363.551 249.48 364.666 248.541 365.605C247.601 366.545 246.486 367.29 245.258 367.799C244.03 368.307 242.715 368.569 241.386 368.569H211.033C208.35 368.569 205.776 367.503 203.879 365.605C201.981 363.708 200.915 361.134 200.915 358.451V328.098C200.915 325.415 201.981 322.841 203.879 320.943C205.776 319.046 208.35 317.98 211.033 317.98Z" fill="white"/>
</g>
<path d="M225.862 343.526C225.869 342.427 225.591 341.344 225.053 340.385L224.927 340.164H217.034L216.911 340.385C216.374 341.344 216.095 342.427 216.102 343.526C216.102 346.39 217.925 348.763 220.29 349.156V355.844C218.926 355.899 217.909 356.107 217.909 356.352C217.909 356.644 219.294 356.877 221.009 356.877C222.724 356.877 224.109 356.643 224.109 356.352C224.109 356.106 223.093 355.899 221.728 355.844V349.15C224.064 348.733 225.862 346.369 225.862 343.526ZM220.981 348.34C218.772 348.34 216.972 346.183 216.972 343.523C216.967 342.659 217.165 341.806 217.55 341.033H224.412C224.797 341.806 224.995 342.659 224.991 343.523C224.993 346.183 223.191 348.34 220.981 348.34ZM234.218 332.793H230.747V329.783H234.218V332.793ZM234.218 336.523V333.723H230.747V336.524C230.006 336.858 229.376 337.398 228.934 338.081C228.493 338.764 228.257 339.56 228.257 340.373V357.034H236.706V340.373C236.707 339.56 236.473 338.763 236.031 338.08C235.59 337.397 234.96 336.857 234.218 336.523ZM235.961 352.783H229.078V344.528H235.961V352.783ZM224.627 343.617C224.627 343.617 224.445 347.983 221.04 347.983C217.635 347.983 217.172 343.617 217.172 343.617H224.627Z" fill="#2D3DDF"/>
<defs>
<filter id="filter0_d_2_2077" x="0" y="0" width="493" height="417" filterUnits="userSpaceOnUse" color-interpolation-filters="sRGB">
<feFlood flood-opacity="0" result="BackgroundImageFix"/>
<feColorMatrix in="SourceAlpha" type="matrix" values="0 0 0 0 0 0 0 0 0 0 0 0 0 0 0 0 0 0 127 0" result="hardAlpha"/>
<feOffset/>
<feGaussianBlur stdDeviation="3"/>
<feColorMatrix type="matrix" values="0 0 0 0 0 0 0 0 0 0 0 0 0 0 0 0 0 0 0.161 0"/>
<feBlend mode="normal" in2="BackgroundImageFix" result="effect1_dropShadow_2_2077"/>
<feBlend mode="normal" in="SourceGraphic" in2="effect1_dropShadow_2_2077" result="shape"/>
</filter>
<filter id="filter1_d_2_2077" x="356.836" y="311.98" width="62.5889" height="62.589" filterUnits="userSpaceOnUse" color-interpolation-filters="sRGB">
<feFlood flood-opacity="0" result="BackgroundImageFix"/>
<feColorMatrix in="SourceAlpha" type="matrix" values="0 0 0 0 0 0 0 0 0 0 0 0 0 0 0 0 0 0 127 0" result="hardAlpha"/>
<feOffset/>
<feGaussianBlur stdDeviation="3"/>
<feColorMatrix type="matrix" values="0 0 0 0 0 0 0 0 0 0 0 0 0 0 0 0 0 0 0.192 0"/>
<feBlend mode="normal" in2="BackgroundImageFix" result="effect1_dropShadow_2_2077"/>
<feBlend mode="normal" in="SourceGraphic" in2="effect1_dropShadow_2_2077" result="shape"/>
</filter>
<filter id="filter2_d_2_2077" x="113.974" y="311.98" width="62.5889" height="62.589" filterUnits="userSpaceOnUse" color-interpolation-filters="sRGB">
<feFlood flood-opacity="0" result="BackgroundImageFix"/>
<feColorMatrix in="SourceAlpha" type="matrix" values="0 0 0 0 0 0 0 0 0 0 0 0 0 0 0 0 0 0 127 0" result="hardAlpha"/>
<feOffset/>
<feGaussianBlur stdDeviation="3"/>
<feColorMatrix type="matrix" values="0 0 0 0 0 0 0 0 0 0 0 0 0 0 0 0 0 0 0.192 0"/>
<feBlend mode="normal" in2="BackgroundImageFix" result="effect1_dropShadow_2_2077"/>
<feBlend mode="normal" in="SourceGraphic" in2="effect1_dropShadow_2_2077" result="shape"/>
</filter>
<filter id="filter3_d_2_2077" x="275.879" y="311.98" width="62.5889" height="62.589" filterUnits="userSpaceOnUse" color-interpolation-filters="sRGB">
<feFlood flood-opacity="0" result="BackgroundImageFix"/>
<feColorMatrix in="SourceAlpha" type="matrix" values="0 0 0 0 0 0 0 0 0 0 0 0 0 0 0 0 0 0 127 0" result="hardAlpha"/>
<feOffset/>
<feGaussianBlur stdDeviation="3"/>
<feColorMatrix type="matrix" values="0 0 0 0 0 0 0 0 0 0 0 0 0 0 0 0 0 0 0.192 0"/>
<feBlend mode="normal" in2="BackgroundImageFix" result="effect1_dropShadow_2_2077"/>
<feBlend mode="normal" in="SourceGraphic" in2="effect1_dropShadow_2_2077" result="shape"/>
</filter>
<filter id="filter4_d_2_2077" x="44" y="311.98" width="62.5889" height="62.589" filterUnits="userSpaceOnUse" color-interpolation-filters="sRGB">
<feFlood flood-opacity="0" result="BackgroundImageFix"/>
<feColorMatrix in="SourceAlpha" type="matrix" values="0 0 0 0 0 0 0 0 0 0 0 0 0 0 0 0 0 0 127 0" result="hardAlpha"/>
<feOffset/>
<feGaussianBlur stdDeviation="3"/>
<feColorMatrix type="matrix" values="0 0 0 0 0 0 0 0 0 0 0 0 0 0 0 0 0 0 0.192 0"/>
<feBlend mode="normal" in2="BackgroundImageFix" result="effect1_dropShadow_2_2077"/>
<feBlend mode="normal" in="SourceGraphic" in2="effect1_dropShadow_2_2077" result="shape"/>
</filter>
<filter id="filter5_d_2_2077" x="194.915" y="311.98" width="62.5889" height="62.589" filterUnits="userSpaceOnUse" color-interpolation-filters="sRGB">
<feFlood flood-opacity="0" result="BackgroundImageFix"/>
<feColorMatrix in="SourceAlpha" type="matrix" values="0 0 0 0 0 0 0 0 0 0 0 0 0 0 0 0 0 0 127 0" result="hardAlpha"/>
<feOffset/>
<feGaussianBlur stdDeviation="3"/>
<feColorMatrix type="matrix" values="0 0 0 0 0 0 0 0 0 0 0 0 0 0 0 0 0 0 0.192 0"/>
<feBlend mode="normal" in2="BackgroundImageFix" result="effect1_dropShadow_2_2077"/>
<feBlend mode="normal" in="SourceGraphic" in2="effect1_dropShadow_2_2077" result="shape"/>
</filter>
</defs>
</svg>
