<svg width="68" height="68" viewBox="0 0 68 68" fill="none" xmlns="http://www.w3.org/2000/svg">
<path d="M23.4239 37.847V39.031H20.3839V48.999H18.9279V39.031H15.8719V37.847H23.4239ZM26.6721 41.655C26.9281 41.1537 27.2908 40.7644 27.7601 40.487C28.2401 40.2097 28.8215 40.071 29.5041 40.071V41.575H29.1201C27.4881 41.575 26.6721 42.4604 26.6721 44.231V48.999H25.2161V40.231H26.6721V41.655ZM31.9369 38.807C31.6595 38.807 31.4249 38.711 31.2329 38.519C31.0409 38.327 30.9449 38.0924 30.9449 37.815C30.9449 37.5377 31.0409 37.303 31.2329 37.111C31.4249 36.919 31.6595 36.823 31.9369 36.823C32.2035 36.823 32.4275 36.919 32.6089 37.111C32.8009 37.303 32.8969 37.5377 32.8969 37.815C32.8969 38.0924 32.8009 38.327 32.6089 38.519C32.4275 38.711 32.2035 38.807 31.9369 38.807ZM32.6409 40.231V48.999H31.1849V40.231H32.6409ZM36.5784 41.847C36.8664 41.3457 37.293 40.9297 37.8584 40.599C38.4344 40.2577 39.101 40.087 39.8584 40.087C40.637 40.087 41.341 40.2737 41.9704 40.647C42.6104 41.0204 43.1117 41.5484 43.4744 42.231C43.837 42.903 44.0184 43.687 44.0184 44.583C44.0184 45.4684 43.837 46.2577 43.4744 46.951C43.1117 47.6444 42.6104 48.183 41.9704 48.567C41.341 48.951 40.637 49.143 39.8584 49.143C39.1117 49.143 38.4504 48.9777 37.8744 48.647C37.309 48.3057 36.877 47.8844 36.5784 47.383V53.159H35.1224V40.231H36.5784V41.847ZM42.5304 44.583C42.5304 43.9217 42.397 43.3457 42.1304 42.855C41.8637 42.3644 41.501 41.991 41.0424 41.735C40.5944 41.479 40.0984 41.351 39.5544 41.351C39.021 41.351 38.525 41.4844 38.0664 41.751C37.6184 42.007 37.2557 42.3857 36.9784 42.887C36.7117 43.3777 36.5784 43.9484 36.5784 44.599C36.5784 45.2604 36.7117 45.8417 36.9784 46.343C37.2557 46.8337 37.6184 47.2124 38.0664 47.479C38.525 47.735 39.021 47.863 39.5544 47.863C40.0984 47.863 40.5944 47.735 41.0424 47.479C41.501 47.2124 41.8637 46.8337 42.1304 46.343C42.397 45.8417 42.5304 45.255 42.5304 44.583ZM49.0389 49.143C48.3669 49.143 47.7642 49.031 47.2309 48.807C46.6975 48.5724 46.2762 48.2524 45.9669 47.847C45.6575 47.431 45.4869 46.9564 45.4549 46.423H46.9589C47.0015 46.8604 47.2042 47.2177 47.5669 47.495C47.9402 47.7724 48.4255 47.911 49.0229 47.911C49.5775 47.911 50.0149 47.7884 50.3349 47.543C50.6549 47.2977 50.8149 46.9884 50.8149 46.615C50.8149 46.231 50.6442 45.9484 50.3029 45.767C49.9615 45.575 49.4335 45.3884 48.7189 45.207C48.0682 45.0364 47.5349 44.8657 47.1189 44.695C46.7135 44.5137 46.3615 44.2524 46.0629 43.911C45.7749 43.559 45.6309 43.1004 45.6309 42.535C45.6309 42.087 45.7642 41.6764 46.0309 41.303C46.2975 40.9297 46.6762 40.6364 47.1669 40.423C47.6575 40.199 48.2175 40.087 48.8469 40.087C49.8175 40.087 50.6015 40.3324 51.1989 40.823C51.7962 41.3137 52.1162 41.9857 52.1589 42.839H50.7029C50.6709 42.3804 50.4842 42.0124 50.1429 41.735C49.8122 41.4577 49.3642 41.319 48.7989 41.319C48.2762 41.319 47.8602 41.431 47.5509 41.655C47.2415 41.879 47.0869 42.1724 47.0869 42.535C47.0869 42.823 47.1775 43.063 47.3589 43.255C47.5509 43.4364 47.7855 43.5857 48.0629 43.703C48.3509 43.8097 48.7455 43.9324 49.2469 44.071C49.8762 44.2417 50.3882 44.4124 50.7829 44.583C51.1775 44.743 51.5135 44.9884 51.7909 45.319C52.0789 45.6497 52.2282 46.0817 52.2389 46.615C52.2389 47.095 52.1055 47.527 51.8389 47.911C51.5722 48.295 51.1935 48.599 50.7029 48.823C50.2229 49.0364 49.6682 49.143 49.0389 49.143Z" fill="white"/>
<path d="M41.0847 15.4141C40.6365 14.9656 40.1043 14.6099 39.5185 14.3672C38.9327 14.1244 38.3048 13.9995 37.6707 13.9995C37.0367 13.9995 36.4088 14.1244 35.823 14.3672C35.2372 14.6099 34.705 14.9656 34.2567 15.4141L33.3267 16.3441L32.3967 15.4141C31.4867 14.5319 30.2662 14.0429 28.9988 14.0528C27.7313 14.0626 26.5186 14.5705 25.6223 15.4667C24.7261 16.3629 24.2182 17.5757 24.2084 18.8431C24.1986 20.1106 24.6875 21.331 25.5697 22.2411L26.4997 23.1711L33.3277 30.0011L40.1557 23.1731L41.0857 22.2431C41.5342 21.7948 41.89 21.2626 42.1327 20.6768C42.3754 20.0911 42.5003 19.4632 42.5003 18.8291C42.5003 18.195 42.3754 17.5672 42.1327 16.9814C41.89 16.3956 41.5342 15.8634 41.0857 15.4151L41.0847 15.4141Z" stroke="white" stroke-width="1.5" stroke-linecap="round" stroke-linejoin="round"/>
</svg>
