<svg width="155" height="31" viewBox="0 0 155 31" fill="none" xmlns="http://www.w3.org/2000/svg">
<path opacity="0.999" d="M15.5723 24.92L25.1513 31L22.6173 19.531L31.0723 11.819L19.9253 10.812L15.5723 0L11.2183 10.812L0.0722656 11.819L8.52727 19.531L5.99327 31L15.5723 24.92Z" fill="#DFA12D"/>
<path d="M46.5542 24.92L56.1332 31L53.5992 19.531L62.0542 11.819L50.9072 10.812L46.5542 0L42.2002 10.812L31.0542 11.819L39.5092 19.531L36.9752 31L46.5542 24.92Z" fill="#DFA12D"/>
<path d="M77.5361 24.92L87.1151 31L84.5811 19.531L93.0361 11.819L81.8891 10.812L77.5361 0L73.1821 10.812L62.0361 11.819L70.4911 19.531L67.9571 31L77.5361 24.92Z" fill="#DFA12D"/>
<path d="M108.518 24.92L118.097 31L115.563 19.531L124.018 11.819L112.871 10.812L108.518 0L104.164 10.812L93.0181 11.819L101.473 19.531L98.9391 31L108.518 24.92Z" fill="#DFA12D"/>
<path opacity="0.448" d="M139.5 24.92L149.079 31L146.545 19.531L155 11.819L143.853 10.812L139.5 0L135.146 10.812L124 11.819L132.455 19.531L129.921 31L139.5 24.92Z" fill="#B7BCF3"/>
</svg>
